<svg width="64" height="64" viewBox="0 0 64 64" fill="none" xmlns="http://www.w3.org/2000/svg">
<g clip-path="url(#clip0_28_18678)">
<rect width="64" height="64" fill="#10B981"/>
<path d="M34.912 0.533293C27.3418 0.542328 20.0843 3.55373 14.7315 8.90687C9.37879 14.26 6.36794 21.5178 6.35947 29.088C6.35947 29.5123 6.52804 29.9193 6.8281 30.2193C7.12815 30.5194 7.53512 30.688 7.95947 30.688C8.38381 30.688 8.79078 30.5194 9.09084 30.2193C9.3909 29.9193 9.55947 29.5123 9.55947 29.088C9.55904 24.0731 11.0458 19.1707 13.8316 15.0009C16.6175 10.831 20.5773 7.58088 25.2103 5.66158C29.8434 3.74228 34.9415 3.23999 39.8601 4.21824C44.7786 5.19649 49.2965 7.61133 52.8426 11.1574C56.3886 14.7034 58.8035 19.2214 59.7817 24.1399C60.76 29.0584 60.2577 34.1566 58.3384 38.7896C56.4191 43.4227 53.169 47.3825 48.9991 50.1684C44.8292 52.9542 39.9269 54.4409 34.912 54.4405C34.4877 54.4405 34.0807 54.6091 33.7806 54.9091C33.4806 55.2092 33.312 55.6161 33.312 56.0405C33.312 56.4648 33.4806 56.8718 33.7806 57.1719C34.0807 57.4719 34.4877 57.6405 34.912 57.6405C38.6825 57.6731 42.4221 56.9586 45.915 55.5382C49.4078 54.1179 52.5848 52.0199 55.2626 49.3652C57.9403 46.7105 60.0657 43.5517 61.5162 40.0713C62.9667 36.5908 63.7135 32.8575 63.7135 29.0869C63.7135 25.3163 62.9667 21.583 61.5162 18.1025C60.0657 14.622 57.9403 11.4633 55.2626 8.80862C52.5848 6.15394 49.4078 4.05588 45.915 2.63554C42.4221 1.2152 38.6825 0.500702 34.912 0.533293Z" fill="white"/>
<path d="M33.9669 13.1819C33.5426 13.1819 33.1356 13.3505 32.8355 13.6505C32.5355 13.9506 32.3669 14.3575 32.3669 14.7819V28.6102C32.3686 29.1828 32.5011 29.7474 32.7543 30.261C33.0076 30.7746 33.3749 31.2235 33.8282 31.5734L44.3114 39.6075C44.5891 39.8228 44.9307 39.9392 45.2821 39.9382C45.6165 39.9383 45.9425 39.8338 46.2144 39.6391C46.4863 39.4444 46.6903 39.1695 46.7979 38.8529C46.9055 38.5363 46.9112 38.1939 46.8142 37.8739C46.7171 37.5539 46.5223 37.2724 46.257 37.0688L35.776 29.0347C35.7097 28.985 35.656 28.9206 35.619 28.8465C35.5819 28.7725 35.5626 28.6908 35.5626 28.608V14.7819C35.5626 14.3583 35.3947 13.952 35.0955 13.652C34.7964 13.3521 34.3905 13.183 33.9669 13.1819Z" fill="white"/>
<path d="M3.03144 48.8942L9.06877 54.9316L15.1018 60.9646C16.5731 62.4521 18.5403 63.346 20.6285 63.4758C22.7166 63.6056 24.7794 62.9622 26.4235 61.6683C28.0676 60.3745 29.1779 58.5207 29.5426 56.4606C29.9074 54.4005 29.501 52.2782 28.401 50.4985C30.3757 48.5182 31.4828 45.8346 31.4788 43.0381C31.4748 40.2416 30.36 37.5611 28.3797 35.5865C26.3994 33.6119 23.7158 32.5048 20.9193 32.5088C18.1227 32.5128 15.4423 33.6276 13.4677 35.6078C11.8286 34.6518 9.92357 34.2533 8.03868 34.4721C6.15379 34.691 4.39077 35.5155 3.01437 36.8217C2.22193 37.6141 1.59333 38.5548 1.16447 39.5902C0.735598 40.6255 0.514862 41.7352 0.514862 42.8558C0.514862 43.9765 0.735598 45.0862 1.16447 46.1215C1.59333 47.1569 2.22193 48.0976 3.01437 48.89L3.03144 48.8942ZM24.9109 58.7076C23.9108 59.7074 22.5545 60.2691 21.1402 60.2691C19.726 60.2691 18.3697 59.7074 17.3696 58.7076L12.4629 53.8009L13.9413 52.3225L20.0021 46.2596L24.9088 51.1662C25.9083 52.166 26.4699 53.5217 26.4703 54.9354C26.4707 56.3491 25.9098 57.7072 24.9109 58.7076ZM21.0112 35.627C22.4511 35.6195 23.8613 36.037 25.0651 36.8272C26.2689 37.6174 27.2127 38.7452 27.7785 40.0694C28.3442 41.3936 28.5067 42.8552 28.2455 44.2713C27.9844 45.6874 27.3112 46.995 26.3104 48.0302L21.137 42.8654L15.9616 37.69C17.3179 36.3802 19.1257 35.6417 21.0112 35.627ZM5.29277 39.083C6.30904 38.1133 7.65979 37.5722 9.06451 37.5722C10.4692 37.5722 11.82 38.1133 12.8362 39.083L17.7429 43.9897L10.1994 51.5374L5.29277 46.6308C4.79738 46.1355 4.4044 45.5475 4.13629 44.9003C3.86818 44.2532 3.73018 43.5595 3.73018 42.859C3.73018 42.1585 3.86818 41.4649 4.13629 40.8177C4.4044 40.1706 4.79738 39.5826 5.29277 39.0873V39.083Z" fill="white"/>
</g>
<defs>
<clipPath id="clip0_28_18678">
<rect width="64" height="64" fill="white"/>
</clipPath>
</defs>
</svg>
