<svg width="20" height="20" viewBox="0 0 20 20" fill="none" xmlns="http://www.w3.org/2000/svg">
<g clip-path="url(#clip0_86_2500)">
<mask id="mask0_86_2500" style="mask-type:luminance" maskUnits="userSpaceOnUse" x="0" y="0" width="20" height="20">
<path d="M0 1.90735e-06H20V20H0V1.90735e-06Z" fill="white"/>
</mask>
<g mask="url(#mask0_86_2500)">
<path d="M5.85864 6.65527C5.85864 7.09914 5.4988 7.45898 5.05493 7.45898C4.61106 7.45898 4.25122 7.09914 4.25122 6.65527C4.25122 6.21137 4.61106 5.85152 5.05493 5.85152C5.4988 5.85152 5.85864 6.21137 5.85864 6.65527Z" stroke="#10B981" stroke-width="0.8" stroke-miterlimit="10" stroke-linecap="round" stroke-linejoin="round"/>
<path d="M8.40601 6.65527C8.40601 7.09914 8.04616 7.45898 7.60229 7.45898C7.15843 7.45898 6.79858 7.09914 6.79858 6.65527C6.79858 6.21137 7.15843 5.85152 7.60229 5.85152C8.04616 5.85152 8.40601 6.21137 8.40601 6.65527Z" stroke="#10B981" stroke-width="0.8" stroke-miterlimit="10" stroke-linecap="round" stroke-linejoin="round"/>
<path d="M10.9532 6.65527C10.9532 7.09914 10.5934 7.45898 10.1495 7.45898C9.70567 7.45898 9.34583 7.09914 9.34583 6.65527C9.34583 6.21137 9.70567 5.85152 10.1495 5.85152C10.5934 5.85152 10.9532 6.21137 10.9532 6.65527Z" stroke="#10B981" stroke-width="0.8" stroke-miterlimit="10" stroke-linecap="round" stroke-linejoin="round"/>
<path d="M13.5006 6.65527C13.5006 7.09914 13.1408 7.45898 12.6969 7.45898C12.253 7.45898 11.8932 7.09914 11.8932 6.65527C11.8932 6.21137 12.253 5.85152 12.6969 5.85152C13.1408 5.85152 13.5006 6.21137 13.5006 6.65527Z" stroke="#10B981" stroke-width="0.8" stroke-miterlimit="10" stroke-linecap="round" stroke-linejoin="round"/>
<path d="M16.048 6.65527C16.048 7.09914 15.6881 7.45898 15.2443 7.45898C14.8004 7.45898 14.4406 7.09914 14.4406 6.65527C14.4406 6.21137 14.8004 5.85152 15.2443 5.85152C15.6881 5.85152 16.048 6.21137 16.048 6.65527Z" stroke="#10B981" stroke-width="0.8" stroke-miterlimit="10" stroke-linecap="round" stroke-linejoin="round"/>
<path d="M3.3114 9.29297C3.3114 9.73684 2.95156 10.0967 2.50769 10.0967C2.06382 10.0967 1.70398 9.73684 1.70398 9.29297C1.70398 8.84906 2.06382 8.48926 2.50769 8.48926C2.95156 8.48926 3.3114 8.84906 3.3114 9.29297Z" stroke="#10B981" stroke-width="0.8" stroke-miterlimit="10" stroke-linecap="round" stroke-linejoin="round"/>
<path d="M5.85852 9.29297C5.85852 9.73684 5.49868 10.0967 5.05481 10.0967C4.61094 10.0967 4.2511 9.73684 4.2511 9.29297C4.2511 8.84906 4.61094 8.48926 5.05481 8.48926C5.49868 8.48926 5.85852 8.84906 5.85852 9.29297Z" stroke="#10B981" stroke-width="0.8" stroke-miterlimit="10" stroke-linecap="round" stroke-linejoin="round"/>
<path d="M8.40588 9.29297C8.40588 9.73684 8.04604 10.0967 7.60217 10.0967C7.15831 10.0967 6.79846 9.73684 6.79846 9.29297C6.79846 8.84906 7.15831 8.48926 7.60217 8.48926C8.04604 8.48926 8.40588 8.84906 8.40588 9.29297Z" stroke="#10B981" stroke-width="0.8" stroke-miterlimit="10" stroke-linecap="round" stroke-linejoin="round"/>
<path d="M10.9532 9.29297C10.9532 9.73684 10.5934 10.0967 10.1495 10.0967C9.70567 10.0967 9.34583 9.73684 9.34583 9.29297C9.34583 8.84906 9.70567 8.48926 10.1495 8.48926C10.5934 8.48926 10.9532 8.84906 10.9532 9.29297Z" stroke="#10B981" stroke-width="0.8" stroke-miterlimit="10" stroke-linecap="round" stroke-linejoin="round"/>
<path d="M13.5006 9.29297C13.5006 9.73684 13.1408 10.0967 12.6969 10.0967C12.253 10.0967 11.8932 9.73684 11.8932 9.29297C11.8932 8.84906 12.253 8.48926 12.6969 8.48926C13.1408 8.48926 13.5006 8.84906 13.5006 9.29297Z" stroke="#10B981" stroke-width="0.8" stroke-miterlimit="10" stroke-linecap="round" stroke-linejoin="round"/>
<path d="M16.048 9.29297C16.048 9.73684 15.6881 10.0967 15.2443 10.0967C14.8004 10.0967 14.4406 9.73684 14.4406 9.29297C14.4406 8.84906 14.8004 8.48926 15.2443 8.48926C15.6881 8.48926 16.048 8.84906 16.048 9.29297Z" stroke="#10B981" stroke-width="0.8" stroke-miterlimit="10" stroke-linecap="round" stroke-linejoin="round"/>
<path d="M16.048 6.65527C16.048 7.09914 15.6881 7.45898 15.2443 7.45898C14.8004 7.45898 14.4406 7.09914 14.4406 6.65527C14.4406 6.21137 14.8004 5.85152 15.2443 5.85152C15.6881 5.85152 16.048 6.21137 16.048 6.65527Z" stroke="#10B981" stroke-width="0.8" stroke-miterlimit="10" stroke-linecap="round" stroke-linejoin="round"/>
<path d="M16.048 9.29297C16.048 9.73684 15.6881 10.0967 15.2443 10.0967C14.8004 10.0967 14.4406 9.73684 14.4406 9.29297C14.4406 8.84906 14.8004 8.48926 15.2443 8.48926C15.6881 8.48926 16.048 8.84906 16.048 9.29297Z" stroke="#10B981" stroke-width="0.8" stroke-miterlimit="10" stroke-linecap="round" stroke-linejoin="round"/>
<path d="M3.3114 11.9297C3.3114 12.3736 2.95156 12.7334 2.50769 12.7334C2.06382 12.7334 1.70398 12.3736 1.70398 11.9297C1.70398 11.4858 2.06382 11.126 2.50769 11.126C2.95156 11.126 3.3114 11.4858 3.3114 11.9297Z" stroke="#10B981" stroke-width="0.8" stroke-miterlimit="10" stroke-linecap="round" stroke-linejoin="round"/>
<path d="M5.85852 11.9297C5.85852 12.3736 5.49868 12.7334 5.05481 12.7334C4.61094 12.7334 4.2511 12.3736 4.2511 11.9297C4.2511 11.4858 4.61094 11.126 5.05481 11.126C5.49868 11.126 5.85852 11.4858 5.85852 11.9297Z" stroke="#10B981" stroke-width="0.8" stroke-miterlimit="10" stroke-linecap="round" stroke-linejoin="round"/>
<path d="M8.40588 11.9297C8.40588 12.3736 8.04604 12.7334 7.60217 12.7334C7.15831 12.7334 6.79846 12.3736 6.79846 11.9297C6.79846 11.4858 7.15831 11.126 7.60217 11.126C8.04604 11.126 8.40588 11.4858 8.40588 11.9297Z" stroke="#10B981" stroke-width="0.8" stroke-miterlimit="10" stroke-linecap="round" stroke-linejoin="round"/>
<path d="M10.9532 11.9297C10.9532 12.3736 10.5934 12.7334 10.1495 12.7334C9.70567 12.7334 9.34583 12.3736 9.34583 11.9297C9.34583 11.4858 9.70567 11.126 10.1495 11.126C10.5934 11.126 10.9532 11.4858 10.9532 11.9297Z" stroke="#10B981" stroke-width="0.8" stroke-miterlimit="10" stroke-linecap="round" stroke-linejoin="round"/>
<path d="M9.36826 15.227C6.90732 15.2415 4.44638 15.1509 1.98544 14.9563C1.25927 14.8985 0.673334 14.3352 0.59599 13.611C0.261225 10.4587 0.205366 7.30671 0.429194 4.15476C0.473334 3.52351 0.529193 2.89226 0.59599 2.26101C0.673334 1.53679 1.25927 0.973511 1.98544 0.916089C6.57919 0.552026 11.1726 0.552026 15.7663 0.916089C16.4925 0.973511 17.0784 1.53679 17.1554 2.26101C17.2226 2.89226 17.2784 3.52351 17.3226 4.15476C17.5425 7.25437 17.4925 10.354 17.1718 13.454" stroke="#10B981" stroke-width="0.8" stroke-miterlimit="10" stroke-linecap="round" stroke-linejoin="round"/>
<path d="M2.97268 4.15527H0.429321" stroke="#10B981" stroke-width="0.8" stroke-miterlimit="10" stroke-linecap="round" stroke-linejoin="round"/>
<path d="M17.3226 4.15527H4.14294" stroke="#10B981" stroke-width="0.8" stroke-miterlimit="10" stroke-linecap="round" stroke-linejoin="round"/>
<path d="M11.957 14.3682C11.9691 14.1428 12.0184 13.9162 12.1082 13.6963C12.1133 13.6838 12.1184 13.6713 12.1238 13.6588C12.5547 12.6174 13.7437 12.1108 14.7984 12.5076C16.0344 12.9725 17.2547 13.4744 18.4602 14.0135C19.4891 14.4736 19.9773 15.6701 19.5508 16.7135C19.5457 16.726 19.5406 16.7385 19.5355 16.751C19.1816 17.6069 18.3152 18.1018 17.4324 18.0303" stroke="#10B981" stroke-width="0.8" stroke-miterlimit="10" stroke-linecap="round" stroke-linejoin="round"/>
<path d="M16.3128 17.6934C15.4902 17.3758 14.6746 17.0414 13.866 16.6902" stroke="#10B981" stroke-width="0.8" stroke-miterlimit="10" stroke-linecap="round" stroke-linejoin="round"/>
<path d="M15.0184 17.1768L16.6408 13.2323" stroke="#10B981" stroke-width="0.8" stroke-miterlimit="10" stroke-linecap="round" stroke-linejoin="round"/>
<path d="M13.4371 15.4086L9.23499 18.2383" stroke="#10B981" stroke-width="0.8" stroke-miterlimit="10" stroke-linecap="round" stroke-linejoin="round"/>
<path d="M10.8506 19.31C9.4776 19.042 8.58178 17.7117 8.84975 16.3387C9.11776 14.9656 10.4481 14.0698 11.8211 14.3378C13.1942 14.6058 14.09 15.9361 13.822 17.3091C13.554 18.6822 12.2237 19.578 10.8506 19.31Z" stroke="#10B981" stroke-width="0.8" stroke-miterlimit="10" stroke-linecap="round" stroke-linejoin="round"/>
</g>
</g>
<defs>
<clipPath id="clip0_86_2500">
<rect width="20" height="20" fill="white"/>
</clipPath>
</defs>
</svg>
