<svg width="20" height="20" viewBox="0 0 20 20" fill="none" xmlns="http://www.w3.org/2000/svg">
<path d="M17.2001 3.2001H16.0001V2.0001C16.0001 1.89401 15.958 1.79227 15.8829 1.71726C15.8079 1.64224 15.7062 1.6001 15.6001 1.6001C15.494 1.6001 15.3923 1.64224 15.3173 1.71726C15.2422 1.79227 15.2001 1.89401 15.2001 2.0001V3.2001H10.4001V2.0001C10.4001 1.89401 10.358 1.79227 10.2829 1.71726C10.2079 1.64224 10.1062 1.6001 10.0001 1.6001C9.89401 1.6001 9.79227 1.64224 9.71725 1.71726C9.64224 1.79227 9.6001 1.89401 9.6001 2.0001V3.2001H4.8001V2.0001C4.8001 1.89401 4.75795 1.79227 4.68294 1.71726C4.60793 1.64224 4.50618 1.6001 4.4001 1.6001C4.29401 1.6001 4.19227 1.64224 4.11725 1.71726C4.04224 1.79227 4.0001 1.89401 4.0001 2.0001V3.2001H2.8001C2.48184 3.2001 2.17661 3.32653 1.95157 3.55157C1.72653 3.77661 1.6001 4.08184 1.6001 4.4001V17.2001C1.6001 17.5184 1.72653 17.8236 1.95157 18.0486C2.17661 18.2737 2.48184 18.4001 2.8001 18.4001H17.2001C17.5184 18.4001 17.8236 18.2737 18.0486 18.0486C18.2737 17.8236 18.4001 17.5184 18.4001 17.2001V4.4001C18.4001 4.08184 18.2737 3.77661 18.0486 3.55157C17.8236 3.32653 17.5184 3.2001 17.2001 3.2001ZM2.8001 4.0001H4.0001V4.4001C4.0001 4.50618 4.04224 4.60793 4.11725 4.68294C4.19227 4.75795 4.29401 4.8001 4.4001 4.8001C4.50618 4.8001 4.60793 4.75795 4.68294 4.68294C4.75795 4.60793 4.8001 4.50618 4.8001 4.4001V4.0001H9.6001V4.4001C9.6001 4.50618 9.64224 4.60793 9.71725 4.68294C9.79227 4.75795 9.89401 4.8001 10.0001 4.8001C10.1062 4.8001 10.2079 4.75795 10.2829 4.68294C10.358 4.60793 10.4001 4.50618 10.4001 4.4001V4.0001H15.2001V4.4001C15.2001 4.50618 15.2422 4.60793 15.3173 4.68294C15.3923 4.75795 15.494 4.8001 15.6001 4.8001C15.7062 4.8001 15.8079 4.75795 15.8829 4.68294C15.958 4.60793 16.0001 4.50618 16.0001 4.4001V4.0001H17.2001C17.3062 4.0001 17.4079 4.04224 17.4829 4.11725C17.558 4.19227 17.6001 4.29401 17.6001 4.4001V6.4001H2.4001V4.4001C2.4001 4.29401 2.44224 4.19227 2.51725 4.11725C2.59227 4.04224 2.69401 4.0001 2.8001 4.0001ZM17.2001 17.6001H2.8001C2.69401 17.6001 2.59227 17.558 2.51725 17.4829C2.44224 17.4079 2.4001 17.3062 2.4001 17.2001V7.2001H17.6001V17.2001C17.6001 17.3062 17.558 17.4079 17.4829 17.4829C17.4079 17.558 17.3062 17.6001 17.2001 17.6001ZM15.2001 12.8721V11.6001C15.2001 11.2818 15.0737 10.9766 14.8486 10.7516C14.6236 10.5265 14.3184 10.4001 14.0001 10.4001H12.8001V9.2001C12.8001 9.09401 12.758 8.99227 12.6829 8.91725C12.6079 8.84224 12.5062 8.8001 12.4001 8.8001C12.294 8.8001 12.1923 8.84224 12.1173 8.91725C12.0422 8.99227 12.0001 9.09401 12.0001 9.2001V10.4001H10.4001V9.2001C10.4001 9.09401 10.358 8.99227 10.2829 8.91725C10.2079 8.84224 10.1062 8.8001 10.0001 8.8001C9.89401 8.8001 9.79227 8.84224 9.71725 8.91725C9.64224 8.99227 9.6001 9.09401 9.6001 9.2001V10.4001H8.0001V9.2001C8.0001 9.09401 7.95795 8.99227 7.88294 8.91725C7.80793 8.84224 7.70618 8.8001 7.6001 8.8001C7.49401 8.8001 7.39227 8.84224 7.31725 8.91725C7.24224 8.99227 7.2001 9.09401 7.2001 9.2001V10.4001H6.0001C5.68184 10.4001 5.37661 10.5265 5.15157 10.7516C4.92653 10.9766 4.8001 11.2818 4.8001 11.6001V12.8721C4.56732 12.9556 4.36579 13.1086 4.22272 13.3103C4.07965 13.512 4.00195 13.7528 4.0001 14.0001V14.8001C4.0001 15.1184 4.12653 15.4236 4.35157 15.6486C4.57661 15.8737 4.88184 16.0001 5.2001 16.0001H14.8001C15.1184 16.0001 15.4236 15.8737 15.6486 15.6486C15.8737 15.4236 16.0001 15.1184 16.0001 14.8001V14.0001C15.9982 13.7528 15.9205 13.512 15.7775 13.3103C15.6344 13.1086 15.4329 12.9556 15.2001 12.8721ZM5.6001 11.6001C5.6001 11.494 5.64224 11.3923 5.71725 11.3173C5.79227 11.2422 5.89401 11.2001 6.0001 11.2001H14.0001C14.1062 11.2001 14.2079 11.2422 14.2829 11.3173C14.358 11.3923 14.4001 11.494 14.4001 11.6001V12.8001H5.6001V11.6001ZM15.2001 14.8001C15.2001 14.9062 15.158 15.0079 15.0829 15.0829C15.0079 15.158 14.9062 15.2001 14.8001 15.2001H5.2001C5.09401 15.2001 4.99227 15.158 4.91725 15.0829C4.84224 15.0079 4.8001 14.9062 4.8001 14.8001V14.0001C4.8001 13.894 4.84224 13.7923 4.91725 13.7173C4.99227 13.6422 5.09401 13.6001 5.2001 13.6001H14.8001C14.9062 13.6001 15.0079 13.6422 15.0829 13.7173C15.158 13.7923 15.2001 13.894 15.2001 14.0001V14.8001Z" fill="#10B981" stroke="#10B981" stroke-width="0.4"/>
</svg>
