<svg width="20" height="20" viewBox="0 0 20 20" fill="none" xmlns="http://www.w3.org/2000/svg">
<g clip-path="url(#clip0_86_3324)">
<path fill-rule="evenodd" clip-rule="evenodd" d="M9.56063 8.17809H4.40539H4.15934C4.29994 9.80668 5.67077 11.0955 7.33451 11.0955C8.49443 11.0955 9.57235 10.4628 10.1347 9.44347C10.1816 9.34974 10.2753 9.29115 10.3691 9.29115H15.29C15.6063 9.29115 15.8524 9.04511 15.8524 8.74048V8.17809H9.57235H9.56063ZM9.99414 20C4.4874 20 0 15.5126 0 9.99414C0 4.4874 4.4874 0 9.99414 0C15.5126 0 20 4.4874 20 9.99414C20 15.5126 15.5126 20 9.99414 20ZM9.99414 0.550674C4.79203 0.550674 0.550674 4.79203 0.550674 9.99414C0.550674 15.208 4.79203 19.4493 9.99414 19.4493C15.208 19.4493 19.4493 15.208 19.4493 9.99414C19.4493 4.79203 15.208 0.550674 9.99414 0.550674ZM9.99414 18.7112C5.19039 18.7112 1.28881 14.7979 1.28881 9.99414C1.28881 5.19039 5.19039 1.28881 9.99414 1.28881C14.7979 1.28881 18.7112 5.19039 18.7112 9.99414C18.7112 14.7979 14.7979 18.7112 9.99414 18.7112ZM9.99414 1.83948C5.49502 1.83948 1.83948 5.49502 1.83948 9.99414C1.83948 14.4933 5.49502 18.1605 9.99414 18.1605C14.4933 18.1605 18.1605 14.4933 18.1605 9.99414C18.1605 5.49502 14.4933 1.83948 9.99414 1.83948ZM10.2871 15.4071C9.81839 15.4071 9.43175 15.0205 9.43175 14.5401C9.43175 14.3878 9.54892 14.2707 9.70123 14.2707C9.85354 14.2707 9.97071 14.3878 9.97071 14.5401C9.97071 14.7159 10.1113 14.8565 10.2871 14.8565C10.4628 14.8565 10.6151 14.7159 10.6151 14.5401C10.6151 14.3644 10.4628 14.2238 10.2871 14.2238C9.81839 14.2238 9.43175 13.8371 9.43175 13.3568C9.43175 12.8881 9.81839 12.5015 10.2871 12.5015C10.7674 12.5015 11.1541 12.8881 11.1541 13.3568C11.1541 13.5091 11.0369 13.638 10.8846 13.638C10.7323 13.638 10.6151 13.5091 10.6151 13.3568C10.6151 13.181 10.4628 13.0404 10.2871 13.0404C10.1113 13.0404 9.97071 13.181 9.97071 13.3568C9.97071 13.5325 10.1113 13.6731 10.2871 13.6731C10.7674 13.6731 11.1541 14.0715 11.1541 14.5401C11.1541 15.0205 10.7674 15.4071 10.2871 15.4071ZM13.1224 15.4071C12.4897 15.4071 11.9859 14.9033 11.9859 14.2707V13.6497C11.9859 13.017 12.5015 12.5132 13.1224 12.5132H13.5559C13.9426 12.5132 14.2589 12.8178 14.2589 13.2045C14.2589 13.3568 14.1301 13.4856 13.9895 13.4856C13.8371 13.4856 13.7083 13.3568 13.7083 13.2045C13.7083 13.1224 13.638 13.0521 13.5559 13.0521H13.1224C12.7944 13.0521 12.5366 13.3216 12.5366 13.6497V14.2707C12.5366 14.5987 12.7944 14.8565 13.1224 14.8565C13.345 14.8565 13.5442 14.7276 13.638 14.5401H13.2396C13.099 14.5401 12.9701 14.423 12.9701 14.2707C12.9701 14.1183 13.099 14.0012 13.2396 14.0012H13.9895C14.1301 14.0012 14.2589 14.1183 14.2589 14.2707C14.2589 14.9033 13.7434 15.4071 13.1224 15.4071ZM8.3304 15.4071C8.17809 15.4071 8.04921 15.29 8.04921 15.1377V13.9543L7.41652 15.2548C7.36965 15.3486 7.27592 15.4071 7.17047 15.4071C7.06503 15.4071 6.97129 15.3486 6.92443 15.2548L6.28002 13.9543V15.1377C6.28002 15.29 6.16286 15.4071 6.01054 15.4071C5.85823 15.4071 5.74107 15.29 5.74107 15.1377V12.7827C5.74107 12.6538 5.82308 12.5483 5.95196 12.5132C6.06913 12.4897 6.19801 12.5483 6.25659 12.6655L7.17047 14.5167L8.08436 12.6655C8.13122 12.5483 8.26011 12.4897 8.38899 12.5132C8.50615 12.5483 8.59988 12.6538 8.59988 12.7827V15.1377C8.59988 15.29 8.471 15.4071 8.3304 15.4071ZM4.27651 7.63913L6.20972 5.00293C6.4089 4.74517 6.6901 4.59285 6.98301 4.59285C7.27592 4.59285 7.55712 4.74517 7.7563 5.00293L9.70123 7.63913H16.1219C16.2742 7.63913 16.403 7.7563 16.403 7.90861V8.74048C16.403 9.34974 15.8992 9.84183 15.29 9.84183H10.5331C9.85354 10.9549 8.64675 11.6462 7.33451 11.6462C5.27241 11.6462 3.59695 9.97071 3.59695 7.90861C3.59695 7.7563 3.71412 7.63913 3.86643 7.63913H4.27651ZM4.95606 7.63913H9.02168L7.32279 5.33099C7.13533 5.07323 6.84241 5.07323 6.65495 5.33099L4.95606 7.63913Z" fill="#10B981"/>
</g>
<defs>
<clipPath id="clip0_86_3324">
<rect width="20" height="20" fill="white"/>
</clipPath>
</defs>
</svg>
