<svg width="20" height="20" viewBox="0 0 20 20" fill="none" xmlns="http://www.w3.org/2000/svg">
<path d="M19 6.71211V3.0676C18.9997 2.77911 18.885 2.50253 18.681 2.29854C18.477 2.09455 18.2004 1.97981 17.9119 1.97949H9.58164C9.29315 1.97981 9.01657 2.09455 8.81258 2.29854C8.60859 2.50253 8.49385 2.77911 8.49353 3.0676V14.3928C8.4946 15.3545 8.87708 16.2764 9.55704 16.9564C10.237 17.6363 11.1589 18.0188 12.1206 18.0199H15.373C16.3346 18.0188 17.2566 17.6363 17.9365 16.9564C18.6165 16.2764 18.999 15.3545 19 14.3928V6.71211ZM9.58164 2.7049H17.9119C18.0081 2.70502 18.1003 2.74328 18.1683 2.81127C18.2363 2.87926 18.2745 2.97144 18.2746 3.0676V6.22462C17.6002 5.98014 16.8859 5.86384 16.1687 5.88173C15.3813 5.86389 14.5983 6.00445 13.8662 6.29508C13.2127 6.5566 12.5129 6.68265 11.8092 6.66558C10.4777 6.66057 10.1374 6.39462 9.21894 6.11778V3.0676C9.21906 2.97144 9.25732 2.87926 9.32531 2.81127C9.3933 2.74328 9.48548 2.70502 9.58164 2.7049ZM15.373 17.2945H12.1206C11.3513 17.2936 10.6137 16.9876 10.0698 16.4436C9.5258 15.8997 9.21981 15.1621 9.21894 14.3928V6.87619C10.0368 7.22734 10.9193 7.40273 11.8092 7.39099C12.5966 7.40883 13.3796 7.26827 14.1117 6.97764C14.7652 6.71612 15.465 6.59007 16.1687 6.60715C16.8737 6.58988 17.5749 6.71624 18.2295 6.97853C18.36 6.93033 18.2303 14.3763 18.2747 14.3929C18.2738 15.1622 17.9678 15.8997 17.4238 16.4436C16.8798 16.9876 16.1423 17.2936 15.373 17.2945Z" fill="#10B981"/>
<path d="M4.62933 12.5691C2.58623 10.6508 -0.286377 13.5245 1.63175 15.5667C3.67486 17.485 6.54744 14.6113 4.62933 12.5691ZM3.13053 12.6736C3.37359 12.6751 3.61194 12.7408 3.82139 12.8642L1.92677 14.7588C1.80674 14.5472 1.74408 14.3079 1.745 14.0646C1.74592 13.8213 1.81039 13.5825 1.93203 13.3718C2.05366 13.1611 2.22824 12.9858 2.43846 12.8633C2.64868 12.7409 2.88725 12.6755 3.13053 12.6736ZM3.13053 15.4622C2.88746 15.4607 2.64911 15.395 2.43966 15.2717L4.33428 13.377C4.45432 13.5886 4.51698 13.828 4.51606 14.0712C4.51514 14.3145 4.45066 14.5534 4.32903 14.7641C4.20739 14.9748 4.03282 15.15 3.8226 15.2725C3.61238 15.3949 3.37381 15.4603 3.13053 15.4622Z" fill="#10B981"/>
<path d="M5.0848 5.96296C3.33091 4.29844 0.827229 6.80156 2.49191 8.55611L4.0732 10.1372C4.24333 10.308 4.44548 10.4436 4.66808 10.5362C4.89067 10.6288 5.12934 10.6766 5.37043 10.6768C5.61152 10.6771 5.85028 10.6298 6.07306 10.5376C6.29585 10.4455 6.49827 10.3103 6.66874 10.1398C6.83921 9.96936 6.97439 9.76694 7.06654 9.54416C7.15869 9.32138 7.206 9.08262 7.20576 8.84153C7.20551 8.60044 7.15773 8.36177 7.06513 8.13918C6.97254 7.91658 6.83695 7.71443 6.66614 7.5443L5.0848 5.96296ZM3.00477 6.47584C3.2128 6.26842 3.49459 6.15194 3.78835 6.15194C4.08212 6.15194 4.36391 6.26842 4.57194 6.47584L5.10625 7.01016L3.53901 8.57739L3.00475 8.04319C2.79729 7.83514 2.68079 7.55332 2.6808 7.25951C2.6808 6.9657 2.79731 6.68389 3.00477 6.47584ZM6.15327 9.62434C5.94526 9.8318 5.66347 9.9483 5.36969 9.9483C5.07591 9.9483 4.79411 9.8318 4.5861 9.62434L4.05193 9.09023L5.61913 7.52304L6.15325 8.05716C6.36071 8.26517 6.47722 8.54697 6.47722 8.84075C6.47722 9.13454 6.36073 9.41633 6.15327 9.62434Z" fill="#10B981"/>
</svg>
