<svg width="20" height="20" viewBox="0 0 20 20" fill="none" xmlns="http://www.w3.org/2000/svg">
<g clip-path="url(#clip0_103_3083)">
<path d="M9.99986 16.5243C3.86048 16.5243 0.242357 10.7131 0.0911074 10.4662C0.00423237 10.3231 -0.0188926 10.1606 0.0136074 10.0093C-0.0195176 9.85559 0.00485737 9.68809 0.0961074 9.54434C0.252357 9.29684 3.99986 3.47559 9.99923 3.47559C16.1386 3.47559 19.7567 9.28684 19.908 9.53371C19.9949 9.67684 20.018 9.83934 19.9855 9.99059C20.0186 10.1443 19.9942 10.3118 19.903 10.4556C19.7467 10.7037 15.9992 16.5243 9.99986 16.5243ZM1.28861 10.0125C1.95923 10.9925 5.16736 15.275 9.99986 15.275C14.7317 15.275 18.0192 10.975 18.7111 9.98809C18.0405 9.00809 14.8324 4.72559 9.99986 4.72559C5.26798 4.72559 1.98048 9.02496 1.28861 10.0125ZM9.99986 13.5631C8.01486 13.5631 6.39986 11.9481 6.39986 9.96309C6.39986 7.97809 8.01486 6.36309 9.99986 6.36309C11.9849 6.36309 13.5999 7.97809 13.5999 9.96309C13.5999 11.9481 11.9849 13.5631 9.99986 13.5631ZM9.99986 7.61371C8.70423 7.61371 7.64986 8.66809 7.64986 9.96371C7.64986 11.2593 8.70423 12.3137 9.99986 12.3137C11.2955 12.3137 12.3499 11.2593 12.3499 9.96371C12.3499 8.66809 11.2955 7.61371 9.99986 7.61371Z" fill="#10B981"/>
</g>
<defs>
<clipPath id="clip0_103_3083">
<rect width="20" height="20" fill="white"/>
</clipPath>
</defs>
</svg>
