<svg width="20" height="20" viewBox="0 0 20 20" fill="none" xmlns="http://www.w3.org/2000/svg">
<path d="M13.7498 1.875V3.125H15.9767L13.8673 5.25375C13.1134 4.68436 12.1946 4.3759 11.2498 4.375C10.0811 4.375 8.98981 4.8375 8.16356 5.66438C7.75514 6.06786 7.43089 6.54842 7.20961 7.07817C6.98832 7.60792 6.87441 8.17633 6.87446 8.75044C6.87452 9.32456 6.98855 9.89294 7.20995 10.4227C7.43134 10.9524 7.75568 11.4328 8.16418 11.8363C8.70793 12.38 9.35543 12.7706 10.0779 12.9688C10.1492 12.9144 10.2292 12.8575 10.2929 12.7938C10.5549 12.5273 10.7431 12.1974 10.8392 11.8363C10.1587 11.7525 9.52594 11.4429 9.0423 10.9569C8.45231 10.3675 8.1248 9.585 8.1248 8.75C8.1248 7.915 8.45293 7.13375 9.04356 6.54375C9.63231 5.95188 10.4148 5.625 11.2498 5.625C12.0848 5.625 12.8667 5.95313 13.4561 6.54375C13.7476 6.83241 13.9789 7.17606 14.1366 7.55478C14.2943 7.9335 14.3753 8.33976 14.3748 8.75C14.3748 9.29063 14.2217 9.79375 13.9648 10.2538C14.0248 10.5763 14.0623 10.915 14.0623 11.25C14.0623 11.5621 14.0363 11.8683 13.9842 12.1688C14.1092 12.0669 14.2204 11.9513 14.3361 11.8363C15.1623 11.0088 15.6248 9.91875 15.6248 8.75C15.6248 7.79375 15.3098 6.885 14.7461 6.1325L16.8748 4.02375V6.25H18.1248V1.875H13.7498ZM9.92168 7.03125C9.85043 7.08563 9.77043 7.1425 9.70668 7.20625C9.43668 7.4775 9.26043 7.80625 9.16043 8.16438C9.84168 8.25188 10.4636 8.54938 10.9573 9.04313C11.5479 9.6325 11.8761 10.415 11.8761 11.2494C11.8761 12.0838 11.5479 12.8656 10.9573 13.4556C10.3673 14.0481 9.58481 14.375 8.7498 14.375C7.9148 14.375 7.13293 14.0469 6.54356 13.4563C6.25177 13.1678 6.02027 12.8242 5.86254 12.4454C5.70481 12.0667 5.624 11.6603 5.6248 11.25C5.6248 10.7094 5.77793 10.2063 6.0348 9.74625C5.97276 9.41772 5.94013 9.08432 5.9373 8.75C5.9373 8.43833 5.96335 8.13208 6.01543 7.83125C5.89043 7.93313 5.7798 8.04875 5.66356 8.16438C4.83856 8.99 4.3748 10.0813 4.3748 11.25C4.3748 12.2063 4.68981 13.115 5.25355 13.8675L4.1998 14.9219L2.9498 13.6719L2.0498 14.5506L3.2998 15.8006L2.0498 17.0506L2.9498 17.9506L4.1998 16.7006L5.44981 17.9506L6.32793 17.0506L5.07793 15.8006L6.13293 14.7469C6.88611 15.3171 7.80509 15.6255 8.7498 15.625C9.91855 15.625 11.0098 15.1625 11.8361 14.3356C12.6623 13.51 13.1248 12.4188 13.1248 11.25C13.1248 10.0813 12.6623 8.99125 11.8354 8.16375C11.2917 7.62 10.6442 7.22938 9.92168 7.03125Z" fill="#10B981"/>
</svg>
