<svg width="120" height="35" viewBox="0 0 120 35" fill="none" xmlns="http://www.w3.org/2000/svg">
<path d="M0 29.1667C0 13.0584 13.0584 0 29.1667 0H120V35H5.83333C2.61167 35 0 32.3883 0 29.1667Z" fill="url(#paint0_linear_28_18600)"/>
<path d="M0 29.1667C0 13.0584 13.0584 0 29.1667 0H120V35H5.83333C2.61167 35 0 32.3883 0 29.1667Z" fill="url(#paint1_linear_28_18600)"/>
<path d="M30.2109 23.2812C29.3932 23.2812 28.6589 23.1458 28.0078 22.875C27.3568 22.599 26.7995 22.2031 26.3359 21.6875C25.8776 21.1719 25.526 20.5521 25.2812 19.8281C25.0365 19.099 24.9141 18.2786 24.9141 17.3672V17.3516C24.9141 16.1484 25.1302 15.1068 25.5625 14.2266C25.9948 13.3411 26.6042 12.6562 27.3906 12.1719C28.1823 11.6875 29.112 11.4453 30.1797 11.4453C31.0495 11.4453 31.8255 11.6016 32.5078 11.9141C33.1953 12.2214 33.7578 12.6536 34.1953 13.2109C34.6328 13.763 34.9115 14.4062 35.0312 15.1406L35.0469 15.2188H33.0469L33.0234 15.1406C32.8411 14.5208 32.5026 14.0417 32.0078 13.7031C31.513 13.3594 30.9036 13.1875 30.1797 13.1875C29.5234 13.1875 28.9531 13.3568 28.4688 13.6953C27.9896 14.0339 27.6198 14.513 27.3594 15.1328C27.099 15.7526 26.9688 16.487 26.9688 17.3359V17.3516C26.9688 17.9974 27.0443 18.5781 27.1953 19.0938C27.3464 19.6094 27.5625 20.0495 27.8438 20.4141C28.1302 20.7786 28.474 21.0573 28.875 21.25C29.2812 21.4427 29.737 21.5391 30.2422 21.5391C30.8151 21.5391 31.3177 21.4271 31.75 21.2031C32.1875 20.9792 32.5286 20.6667 32.7734 20.2656C33.0234 19.8646 33.1536 19.3984 33.1641 18.8672V18.6328H30.4609V17.0938H35.1328V18.5C35.1328 19.2292 35.0182 19.888 34.7891 20.4766C34.5599 21.0651 34.2292 21.5677 33.7969 21.9844C33.3698 22.401 32.8516 22.7214 32.2422 22.9453C31.638 23.1693 30.9609 23.2812 30.2109 23.2812ZM40.9375 23.1719C40.0885 23.1719 39.3594 22.9922 38.75 22.6328C38.1458 22.2734 37.6797 21.763 37.3516 21.1016C37.0234 20.4401 36.8594 19.6562 36.8594 18.75V18.7422C36.8594 17.8464 37.0208 17.0651 37.3438 16.3984C37.6719 15.7318 38.1354 15.2161 38.7344 14.8516C39.3333 14.4818 40.0365 14.2969 40.8438 14.2969C41.6562 14.2969 42.3542 14.4766 42.9375 14.8359C43.526 15.1901 43.9792 15.6875 44.2969 16.3281C44.6146 16.9688 44.7734 17.7188 44.7734 18.5781V19.2188H37.8359V17.9141H43.8203L42.8984 19.1328V18.3594C42.8984 17.7917 42.8125 17.3203 42.6406 16.9453C42.4688 16.5703 42.2292 16.2891 41.9219 16.1016C41.6198 15.9141 41.2682 15.8203 40.8672 15.8203C40.4661 15.8203 40.1094 15.9193 39.7969 16.1172C39.4896 16.3099 39.2448 16.5964 39.0625 16.9766C38.8854 17.3516 38.7969 17.8125 38.7969 18.3594V19.1406C38.7969 19.6667 38.8854 20.1172 39.0625 20.4922C39.2396 20.862 39.4896 21.1484 39.8125 21.3516C40.1406 21.5495 40.5286 21.6484 40.9766 21.6484C41.3255 21.6484 41.625 21.599 41.875 21.5C42.1302 21.3958 42.3359 21.2734 42.4922 21.1328C42.6484 20.987 42.7578 20.849 42.8203 20.7188L42.8438 20.6641H44.6875L44.6719 20.7344C44.6042 21.0104 44.4792 21.2917 44.2969 21.5781C44.1198 21.8594 43.8776 22.1224 43.5703 22.3672C43.2682 22.6068 42.8984 22.8021 42.4609 22.9531C42.0234 23.099 41.5156 23.1719 40.9375 23.1719ZM50.0781 23.0391C49.099 23.0391 48.3932 22.8594 47.9609 22.5C47.5286 22.1406 47.3125 21.5521 47.3125 20.7344V15.9688H45.9844V14.4609H47.3125V12.3672H49.2891V14.4609H51.0859V15.9688H49.2891V20.2734C49.2891 20.6953 49.3776 21.0052 49.5547 21.2031C49.737 21.3958 50.0286 21.4922 50.4297 21.4922C50.5703 21.4922 50.6849 21.4896 50.7734 21.4844C50.8672 21.474 50.9714 21.4635 51.0859 21.4531V22.9531C50.9505 22.9792 50.7943 23 50.6172 23.0156C50.4453 23.0312 50.2656 23.0391 50.0781 23.0391ZM61.4141 23.2812C60.5391 23.2812 59.7786 23.1458 59.1328 22.875C58.4922 22.6042 57.987 22.2266 57.6172 21.7422C57.2474 21.2578 57.0391 20.6927 56.9922 20.0469L56.9844 19.9375H58.9375L58.9453 20.0156C58.9766 20.3333 59.1016 20.6094 59.3203 20.8438C59.5443 21.0781 59.8411 21.263 60.2109 21.3984C60.5807 21.5286 61.0026 21.5938 61.4766 21.5938C61.9297 21.5938 62.3307 21.5234 62.6797 21.3828C63.0286 21.2422 63.3021 21.0495 63.5 20.8047C63.6979 20.5547 63.7969 20.2682 63.7969 19.9453V19.9375C63.7969 19.5312 63.638 19.2005 63.3203 18.9453C63.0026 18.6849 62.4792 18.4766 61.75 18.3203L60.5391 18.0703C59.3828 17.8255 58.5417 17.4349 58.0156 16.8984C57.4948 16.3568 57.2344 15.6667 57.2344 14.8281V14.8203C57.2344 14.1484 57.4115 13.5599 57.7656 13.0547C58.125 12.5495 58.6172 12.1562 59.2422 11.875C59.8724 11.5885 60.5938 11.4453 61.4062 11.4453C62.2396 11.4453 62.9609 11.5859 63.5703 11.8672C64.1797 12.1432 64.6589 12.5208 65.0078 13C65.3568 13.4792 65.5521 14.0208 65.5938 14.625L65.6016 14.7266H63.6797L63.6641 14.6328C63.6172 14.3359 63.4948 14.0781 63.2969 13.8594C63.1042 13.6354 62.8464 13.4583 62.5234 13.3281C62.2005 13.1979 61.8229 13.1328 61.3906 13.1328C60.9792 13.1328 60.612 13.1979 60.2891 13.3281C59.9661 13.4531 59.7109 13.6302 59.5234 13.8594C59.3411 14.0885 59.25 14.3646 59.25 14.6875V14.6953C59.25 15.0911 59.4036 15.4193 59.7109 15.6797C60.0234 15.9401 60.5312 16.1432 61.2344 16.2891L62.4453 16.5469C63.237 16.7135 63.8802 16.9349 64.375 17.2109C64.8698 17.487 65.2318 17.8307 65.4609 18.2422C65.6953 18.6484 65.8125 19.138 65.8125 19.7109V19.7188C65.8125 20.4479 65.6328 21.0781 65.2734 21.6094C64.9193 22.1406 64.4115 22.5521 63.75 22.8438C63.0938 23.1354 62.3151 23.2812 61.4141 23.2812ZM71.2344 23.0391C70.2552 23.0391 69.5495 22.8594 69.1172 22.5C68.6849 22.1406 68.4688 21.5521 68.4688 20.7344V15.9688H67.1406V14.4609H68.4688V12.3672H70.4453V14.4609H72.2422V15.9688H70.4453V20.2734C70.4453 20.6953 70.5339 21.0052 70.7109 21.2031C70.8932 21.3958 71.1849 21.4922 71.5859 21.4922C71.7266 21.4922 71.8411 21.4896 71.9297 21.4844C72.0234 21.474 72.1276 21.4635 72.2422 21.4531V22.9531C72.1068 22.9792 71.9505 23 71.7734 23.0156C71.6016 23.0312 71.4219 23.0391 71.2344 23.0391ZM76.5156 23.1406C75.9792 23.1406 75.4974 23.0365 75.0703 22.8281C74.6484 22.6198 74.3151 22.3255 74.0703 21.9453C73.8307 21.5599 73.7109 21.1068 73.7109 20.5859V20.5703C73.7109 20.0651 73.8359 19.6302 74.0859 19.2656C74.3359 18.8958 74.7031 18.6068 75.1875 18.3984C75.6719 18.1901 76.2604 18.0677 76.9531 18.0312L80.1094 17.8359V19.1172L77.2266 19.3047C76.6797 19.3359 76.276 19.4505 76.0156 19.6484C75.7552 19.8464 75.625 20.1224 75.625 20.4766V20.4922C75.625 20.8568 75.763 21.1406 76.0391 21.3438C76.3203 21.5469 76.6771 21.6484 77.1094 21.6484C77.5 21.6484 77.849 21.5703 78.1562 21.4141C78.4635 21.2578 78.7057 21.0469 78.8828 20.7812C79.0599 20.5104 79.1484 20.2057 79.1484 19.8672V17.1641C79.1484 16.737 79.013 16.4115 78.7422 16.1875C78.4714 15.9583 78.0703 15.8438 77.5391 15.8438C77.0964 15.8438 76.7344 15.9219 76.4531 16.0781C76.1719 16.2292 75.9818 16.4453 75.8828 16.7266L75.875 16.7578H74.0391L74.0469 16.6875C74.1094 16.2083 74.2969 15.7891 74.6094 15.4297C74.9219 15.0703 75.3359 14.7917 75.8516 14.5938C76.3672 14.3958 76.9609 14.2969 77.6328 14.2969C78.3724 14.2969 78.9974 14.4115 79.5078 14.6406C80.0182 14.8646 80.4062 15.1927 80.6719 15.625C80.9375 16.0521 81.0703 16.5651 81.0703 17.1641V23H79.1484V21.8281H79.0156C78.8594 22.099 78.6562 22.3333 78.4062 22.5312C78.1615 22.7292 77.8802 22.8802 77.5625 22.9844C77.2448 23.0885 76.8958 23.1406 76.5156 23.1406ZM83.4062 23V14.4609H85.3516V15.7734H85.4844C85.6302 15.3151 85.8906 14.9583 86.2656 14.7031C86.6458 14.4479 87.1172 14.3203 87.6797 14.3203C87.8255 14.3203 87.9688 14.3307 88.1094 14.3516C88.2552 14.3672 88.375 14.388 88.4688 14.4141V16.1562C88.3125 16.1198 88.1536 16.0938 87.9922 16.0781C87.8359 16.0573 87.6719 16.0469 87.5 16.0469C87.0677 16.0469 86.6901 16.1276 86.3672 16.2891C86.0443 16.4505 85.7943 16.6823 85.6172 16.9844C85.4401 17.2812 85.3516 17.6328 85.3516 18.0391V23H83.4062ZM93.5938 23.0391C92.6146 23.0391 91.9089 22.8594 91.4766 22.5C91.0443 22.1406 90.8281 21.5521 90.8281 20.7344V15.9688H89.5V14.4609H90.8281V12.3672H92.8047V14.4609H94.6016V15.9688H92.8047V20.2734C92.8047 20.6953 92.8932 21.0052 93.0703 21.2031C93.2526 21.3958 93.5443 21.4922 93.9453 21.4922C94.0859 21.4922 94.2005 21.4896 94.2891 21.4844C94.3828 21.474 94.487 21.4635 94.6016 21.4531V22.9531C94.4661 22.9792 94.3099 23 94.1328 23.0156C93.9609 23.0312 93.7812 23.0391 93.5938 23.0391Z" fill="#111827"/>
<defs>
<linearGradient id="paint0_linear_28_18600" x1="2.31791" y1="4.92187" x2="24.7257" y2="69.418" gradientUnits="userSpaceOnUse">
<stop stop-color="#74FFD1"/>
<stop offset="1" stop-color="#10B981"/>
</linearGradient>
<linearGradient id="paint1_linear_28_18600" x1="12.1936" y1="-8.3125" x2="21.4786" y2="49.4643" gradientUnits="userSpaceOnUse">
<stop stop-color="#74FFD1"/>
<stop offset="1" stop-color="#10B981"/>
</linearGradient>
</defs>
</svg>
