<svg width="21" height="21" viewBox="0 0 21 21" fill="none" xmlns="http://www.w3.org/2000/svg">
<path opacity="0.987" fill-rule="evenodd" clip-rule="evenodd" d="M8.93886 0.091125C10.0264 -0.030375 10.6699 -0.030375 11.8384 0.091125C13.9068 0.397268 15.8242 1.35335 17.3134 2.82113C16.307 3.77233 15.314 4.73742 14.3344 5.71612C12.4584 4.12612 10.3644 3.75912 8.05236 4.61513C6.35636 5.39512 5.17536 6.65913 4.50936 8.40713C3.42102 7.59687 2.34686 6.76774 1.28736 5.92013C1.21373 5.88137 1.12964 5.86718 1.04736 5.87962C2.73036 2.63462 5.36036 0.704625 8.93736 0.0896249" fill="#F44336"/>
<path opacity="0.997" fill-rule="evenodd" clip-rule="evenodd" d="M1.04438 5.87978C1.12938 5.86678 1.20988 5.88028 1.28588 5.92028C2.34538 6.7679 3.41954 7.59703 4.50788 8.40728C4.33662 9.08837 4.22866 9.78383 4.18538 10.4848C4.22238 11.1628 4.32988 11.8283 4.50788 12.4813L1.12538 15.1738C-0.347622 12.0958 -0.374622 8.99778 1.04438 5.87978Z" fill="#FFC107"/>
<path opacity="0.999" fill-rule="evenodd" clip-rule="evenodd" d="M17.1531 18.4346C16.0999 17.5058 14.9973 16.6345 13.8501 15.8246C15.0001 15.0126 15.6981 13.8986 15.9441 12.4826H10.3086V8.56911C13.5586 8.54211 16.8071 8.56961 20.0541 8.65161C20.6701 11.9966 19.9586 15.0126 17.9196 17.6996C17.6771 17.9573 17.4203 18.2027 17.1531 18.4346Z" fill="#448AFF"/>
<path opacity="0.993" fill-rule="evenodd" clip-rule="evenodd" d="M4.50799 12.4824C5.73799 15.5394 7.99299 16.9664 11.273 16.7634C12.1937 16.6568 13.0765 16.3352 13.85 15.8244C14.998 16.6364 16.099 17.5064 17.153 18.4344C15.483 19.9351 13.3537 20.8255 11.1125 20.9604C10.6033 21.0011 10.0917 21.0011 9.58249 20.9604C5.76449 20.5104 2.94549 18.5814 1.12549 15.1734L4.50799 12.4824Z" fill="#43A047"/>
</svg>
