<svg width="24" height="24" viewBox="0 0 24 24" fill="none" xmlns="http://www.w3.org/2000/svg">
<path d="M12 8V12L14.5 14.5" stroke="white" stroke-width="1.5" stroke-linecap="round" stroke-linejoin="round"/>
<path d="M4.338 6.87078L3.588 6.87378C3.58879 7.07148 3.66761 7.26087 3.80731 7.40076C3.94701 7.54066 4.1363 7.61973 4.334 7.62078L4.338 6.87078ZM6.88 7.63278C6.97849 7.63324 7.07611 7.61429 7.16728 7.57703C7.25845 7.53976 7.34139 7.4849 7.41136 7.41558C7.48132 7.34627 7.53695 7.26384 7.57507 7.17303C7.61319 7.08221 7.63304 6.98477 7.6335 6.88628C7.63396 6.78779 7.61502 6.69017 7.57775 6.599C7.54048 6.50783 7.48562 6.42489 7.41631 6.35492C7.34699 6.28496 7.26456 6.22932 7.17375 6.19121C7.08293 6.15309 6.98549 6.13324 6.887 6.13278L6.88 7.63278ZM5.075 4.32078C5.07394 4.12187 4.9939 3.93152 4.8525 3.79162C4.7111 3.65172 4.51991 3.57372 4.321 3.57478C4.12209 3.57584 3.93174 3.65587 3.79184 3.79728C3.65194 3.93868 3.57394 4.12987 3.575 4.32878L5.075 4.32078ZM3.75 11.9998C3.75 11.8009 3.67098 11.6101 3.53033 11.4694C3.38968 11.3288 3.19891 11.2498 3 11.2498C2.80109 11.2498 2.61032 11.3288 2.46967 11.4694C2.32902 11.6101 2.25 11.8009 2.25 11.9998H3.75ZM16.875 20.4448C16.9639 20.3975 17.0423 20.3327 17.1056 20.2545C17.1689 20.1762 17.2158 20.086 17.2435 19.9892C17.2712 19.8924 17.2792 19.791 17.2668 19.6911C17.2545 19.5912 17.2222 19.4947 17.1719 19.4076C17.1215 19.3204 17.0541 19.2443 16.9737 19.1837C16.8933 19.1231 16.8015 19.0794 16.7038 19.055C16.6061 19.0307 16.5045 19.0263 16.4051 19.042C16.3056 19.0578 16.2104 19.0934 16.125 19.1468L16.875 20.4448ZM19.147 16.1248C19.0936 16.2102 19.058 16.3054 19.0423 16.4048C19.0265 16.5043 19.0309 16.6059 19.0553 16.7036C19.0796 16.8012 19.1233 16.893 19.1839 16.9735C19.2445 17.0539 19.3206 17.1213 19.4078 17.1716C19.495 17.222 19.5914 17.2543 19.6913 17.2666C19.7912 17.2789 19.8926 17.271 19.9894 17.2433C20.0862 17.2156 20.1764 17.1687 20.2547 17.1054C20.333 17.0421 20.3977 16.9636 20.445 16.8748L19.147 16.1248ZM5.14 5.06978C4.99864 5.20981 4.9187 5.40027 4.91776 5.59924C4.91682 5.79822 4.99497 5.98942 5.135 6.13078C5.27503 6.27214 5.46549 6.35208 5.66446 6.35302C5.86344 6.35396 6.05464 6.27581 6.196 6.13578L5.14 5.06978ZM18.862 5.13678C15.042 1.31678 8.869 1.27878 5.074 5.07378L6.134 6.13278C9.334 2.93378 14.557 2.95278 17.802 6.19778L18.862 5.13678ZM5.074 5.07378L3.808 6.33978L4.868 7.39978L6.135 6.13478L5.074 5.07378ZM4.334 7.62078L6.88 7.63278L6.887 6.13278L4.342 6.12078L4.334 7.62078ZM5.088 6.86678L5.075 4.32078L3.575 4.32878L3.588 6.87378L5.088 6.86678ZM12 3.74978C14.188 3.74978 16.2865 4.61897 17.8336 6.16615C19.3808 7.71332 20.25 9.81174 20.25 11.9998H21.75C21.75 9.41392 20.7228 6.93397 18.8943 5.10549C17.0658 3.27701 14.5859 2.24978 12 2.24978V3.74978ZM12 20.2498C9.81196 20.2498 7.71354 19.3806 6.16637 17.8334C4.61919 16.2862 3.75 14.1878 3.75 11.9998H2.25C2.25 14.5856 3.27723 17.0656 5.10571 18.8941C6.93419 20.7225 9.41414 21.7498 12 21.7498V20.2498ZM16.125 19.1468C14.8715 19.8723 13.4483 20.2528 12 20.2498V21.7498C13.775 21.7498 15.44 21.2748 16.875 20.4448L16.125 19.1468ZM20.25 11.9998C20.2531 13.4481 19.8725 14.8713 19.147 16.1248L20.445 16.8748C21.3025 15.3934 21.7527 13.7115 21.75 11.9998H20.25ZM6.196 6.13578C7.73885 4.60384 9.82578 3.74654 12 3.74978V2.24978C9.43034 2.24636 6.96388 3.25963 5.14 5.06978L6.196 6.13578Z" fill="white"/>
</svg>
