<svg width="117" height="117" viewBox="0 0 117 117" fill="none" xmlns="http://www.w3.org/2000/svg">
<path d="M18.2822 28.4961C21.13 28.4961 23.4385 26.1876 23.4385 23.3399C23.4385 20.4921 21.13 18.1836 18.2822 18.1836C15.4345 18.1836 13.126 20.4921 13.126 23.3399C13.126 26.1876 15.4345 28.4961 18.2822 28.4961Z" stroke="#999999" stroke-width="2" stroke-miterlimit="10" stroke-linejoin="round"/>
<path d="M41.5431 22.2745C40.9762 22.7388 40.3007 23.089 39.5432 23.2805C36.7825 23.9789 33.9782 22.3069 33.28 19.5462C32.5818 16.7855 34.2536 13.9812 37.0143 13.2827C39.775 12.5843 42.5793 14.2563 43.2775 17.017C43.3408 17.2673 43.3846 17.5181 43.4099 17.7677" stroke="#999999" stroke-width="2" stroke-miterlimit="10" stroke-linejoin="round"/>
<path d="M23.3405 48.4932C26.1882 48.4932 28.4967 46.1846 28.4967 43.3369C28.4967 40.4892 26.1882 38.1807 23.3405 38.1807C20.4927 38.1807 18.1842 40.4892 18.1842 43.3369C18.1842 46.1846 20.4927 48.4932 23.3405 48.4932Z" stroke="#999999" stroke-width="2" stroke-miterlimit="10" stroke-linejoin="round"/>
<path d="M28.3991 68.4893C31.2468 68.4893 33.5553 66.1807 33.5553 63.333C33.5553 60.4853 31.2468 58.1768 28.3991 58.1768C25.5513 58.1768 23.2428 60.4853 23.2428 63.333C23.2428 66.1807 25.5513 68.4893 28.3991 68.4893Z" stroke="#999999" stroke-width="2" stroke-miterlimit="10" stroke-linejoin="round"/>
<path d="M41.5424 88.2207H98.9644" stroke="#999999" stroke-width="2" stroke-miterlimit="10" stroke-linejoin="round"/>
<path d="M41.5424 49.9092H98.9644" stroke="#999999" stroke-width="2" stroke-miterlimit="10" stroke-linejoin="round"/>
<path d="M82.0882 63.9082H58.4185C56.2093 63.9082 54.4185 65.6991 54.4185 67.9082V70.2207C54.4185 72.4299 56.2093 74.2207 58.4185 74.2207H82.0882C84.2973 74.2207 86.0882 72.4299 86.0882 70.2207V67.9082C86.0882 65.6991 84.2973 63.9082 82.0882 63.9082Z" stroke="#999999" stroke-width="2" stroke-miterlimit="10" stroke-linejoin="round"/>
<path d="M41.5426 75.9643L24.0129 80.3987C20.2481 81.351 16.4243 79.0712 15.472 75.3064L1.21662 18.9541C0.264353 15.1894 2.54412 11.3655 6.3089 10.4133L42.665 1.21638C46.4298 0.264108 50.2536 2.54388 51.2059 6.30865L54.1058 17.772" stroke="#999999" stroke-width="2" stroke-miterlimit="10" stroke-linejoin="round"/>
<path d="M94.9645 17.7715H45.5425C43.3333 17.7715 41.5425 19.5623 41.5425 21.7715V24.084C41.5425 26.2931 43.3333 28.084 45.5425 28.084H94.9645C97.1736 28.084 98.9645 26.2931 98.9645 24.084V21.7715C98.9645 19.5623 97.1736 17.7715 94.9645 17.7715Z" stroke="#999999" stroke-width="2" stroke-miterlimit="10" stroke-linejoin="round"/>
<path d="M98.9645 89.9465V43.0848C98.9645 40.935 97.9992 39.0112 96.4787 37.722C95.1064 36.5584 93.808 35.062 93.808 33.2628V28.085" stroke="#999999" stroke-width="2" stroke-miterlimit="10" stroke-linejoin="round"/>
<path d="M46.6992 28.085V33.263C46.6992 35.0621 45.4009 36.5584 44.0286 37.7219C42.508 39.0111 41.5427 40.9348 41.5427 43.0848V101.566C41.5427 103.775 43.3336 105.566 45.5427 105.566H89.1664" stroke="#999999" stroke-width="2" stroke-miterlimit="10" stroke-linejoin="round"/>
<path d="M108.763 106.044C108.763 111.456 104.376 115.843 98.9648 115.843C93.5533 115.843 89.1665 111.456 89.1665 106.044C89.1665 101.648 92.0625 97.9271 96.0511 96.6865" stroke="#999999" stroke-width="2" stroke-miterlimit="10" stroke-linejoin="round"/>
<path d="M106.045 106.513C111.457 106.513 115.844 102.126 115.844 96.7143C115.844 91.3029 111.457 86.916 106.045 86.916C100.634 86.916 96.2471 91.3029 96.2471 96.7143C96.2471 102.126 100.634 106.513 106.045 106.513Z" stroke="#999999" stroke-width="2" stroke-miterlimit="10" stroke-linejoin="round"/>
</svg>
