<svg width="20" height="20" viewBox="0 0 20 20" fill="none" xmlns="http://www.w3.org/2000/svg">
<path d="M15.3125 11.1504C15.9192 11.1504 16.5007 11.3913 16.9297 11.8203C17.3587 12.2493 17.5996 12.8308 17.5996 13.4375V13.75C17.5996 15.2917 16.6191 16.5843 15.251 17.4551C13.8732 18.3318 12.0148 18.8496 10 18.8496C7.98518 18.8496 6.12614 18.3318 4.74902 17.4551C3.3809 16.5843 2.40039 15.2917 2.40039 13.75V13.4375C2.40039 12.8308 2.64132 12.2493 3.07031 11.8203C3.4993 11.3913 4.08082 11.1504 4.6875 11.1504H15.3125ZM4.6875 12.5996C4.46538 12.5996 4.25276 12.6886 4.0957 12.8457C3.93864 13.0028 3.84961 13.2154 3.84961 13.4375V13.75C3.84961 14.6242 4.40833 15.5201 5.52832 16.2314C6.63935 16.9385 8.21797 17.4004 10 17.4004C11.782 17.4004 13.3607 16.9385 14.4717 16.2314C15.5912 15.5194 16.1504 14.6248 16.1504 13.75V13.4375C16.1504 13.2154 16.0614 13.0028 15.9043 12.8457C15.7472 12.6886 15.5346 12.5996 15.3125 12.5996H4.6875ZM10 1.15039C11.1868 1.15039 12.3248 1.62171 13.1641 2.46094C14.0033 3.30016 14.4746 4.43816 14.4746 5.625C14.4746 6.81184 14.0033 7.94984 13.1641 8.78906C12.3248 9.62829 11.1868 10.0996 10 10.0996C8.81316 10.0996 7.67516 9.62829 6.83594 8.78906C5.99671 7.94984 5.52539 6.81184 5.52539 5.625C5.52539 4.43816 5.99671 3.30016 6.83594 2.46094C7.67516 1.62171 8.81316 1.15039 10 1.15039ZM10 2.59961C9.19772 2.59961 8.42863 2.91903 7.86133 3.48633C7.29403 4.05363 6.97461 4.82272 6.97461 5.625C6.97461 6.42728 7.29403 7.19637 7.86133 7.76367C8.42863 8.33097 9.19772 8.65039 10 8.65039C10.8023 8.65039 11.5714 8.33097 12.1387 7.76367C12.706 7.19637 13.0254 6.42728 13.0254 5.625C13.0254 4.82272 12.706 4.05363 12.1387 3.48633C11.5714 2.91903 10.8023 2.59961 10 2.59961Z" fill="#10B981" stroke="#10B981" stroke-width="0.2"/>
</svg>
