<svg width="20" height="20" viewBox="0 0 20 20" fill="none" xmlns="http://www.w3.org/2000/svg">
<path d="M18.0064 11.4268C17.7189 11.3447 17.4079 11.2719 17.0782 11.2089C17.0596 11.2041 17.0406 11.2007 17.0213 11.1986C16.0604 11.0195 14.9446 10.923 13.7812 10.923C13.1368 10.923 12.5073 10.953 11.91 11.0098L14.3236 6.82937C14.9295 5.77996 15.0893 4.55332 14.7737 3.37531C14.458 2.19738 13.7062 1.215 12.6568 0.609177C10.4823 -0.646213 7.69199 0.101365 6.43664 2.27578L3.52324 7.32179C3.52297 7.32222 3.52266 7.32258 3.52242 7.32301C3.52219 7.32343 3.52199 7.32386 3.52176 7.32429L0.608319 12.3705C0.00242066 13.4199 -0.157384 14.6466 0.158241 15.8246C0.473866 17.0025 1.22566 17.9849 2.27508 18.5907C2.96941 18.9916 3.74914 19.1977 4.54 19.1977C4.8732 19.1977 5.20844 19.1611 5.54 19.087C6.42238 18.89 7.21566 18.4429 7.83078 17.8056C8.13992 18.1579 8.71523 18.4557 9.55266 18.6949C10.6874 19.0191 12.189 19.1976 13.7811 19.1976C15.3731 19.1976 16.8748 19.0191 18.0095 18.6949C19.3302 18.3176 19.9998 17.795 19.9998 17.1418V12.9812C19.9999 12.9804 20 12.9797 20 12.9789C20 12.327 19.3293 11.8048 18.0064 11.4268ZM13.7813 11.7042C14.3962 11.7043 14.9952 11.7323 15.5621 11.7855L10.6 13.9756C10.3056 13.9185 10.0277 13.8532 9.77074 13.7798C8.60008 13.4453 8.34375 13.0882 8.34375 12.9788C8.34375 12.8695 8.60012 12.5123 9.77078 12.1778C10.8397 11.8725 12.264 11.7042 13.7813 11.7042ZM7.11312 2.6664C8.15312 0.865037 10.4648 0.245701 12.2662 1.2857C13.1349 1.78722 13.7574 2.60117 14.0191 3.57754C14.2807 4.55394 14.1486 5.57008 13.6471 6.43879L10.9383 11.1305C10.9277 11.1321 10.9174 11.1339 10.9068 11.1356L4.3943 7.37539L7.11312 2.6664ZM7.5625 12.9768C7.5625 12.9776 7.56238 12.9782 7.56238 12.9789V16.9184C6.42941 18.4187 4.30348 18.8598 2.66574 17.9142C1.79703 17.4127 1.17449 16.5987 0.91285 15.6223C0.65121 14.6459 0.783358 13.6298 1.28484 12.7611L4.00371 8.05187L9.755 11.3726C9.68762 11.3902 9.62105 11.4082 9.55602 11.4268C8.23461 11.8044 7.56394 12.3259 7.5625 12.9768ZM19.2187 17.1418C19.2187 17.2518 18.963 17.6101 17.795 17.9438C16.7282 18.2486 15.3027 18.4165 13.7812 18.4165C12.2597 18.4165 10.8342 18.2486 9.76734 17.9438C8.59937 17.6101 8.34363 17.2518 8.34363 17.1418V14.0455C8.65531 14.2271 9.05984 14.3892 9.55609 14.531C9.86258 14.6186 10.1962 14.6951 10.5502 14.7608C10.5673 14.7652 10.5848 14.7684 10.6025 14.7703C11.5495 14.9422 12.6425 15.0347 13.7812 15.0347C15.369 15.0347 16.8696 14.8558 18.0064 14.531C18.5026 14.3893 18.907 14.2272 19.2187 14.0456V17.1418ZM19.2187 12.9789V12.98C19.2171 13.0906 18.9588 13.4464 17.7918 13.7799C16.7229 14.0853 15.2985 14.2535 13.7812 14.2535C13.1929 14.2535 12.6189 14.2279 12.0737 14.1791L17.0236 11.9945C17.2952 12.0487 17.5528 12.1097 17.7918 12.178C18.9604 12.5118 19.2178 12.8682 19.2188 12.9783C19.2188 12.9785 19.2187 12.9787 19.2187 12.9789Z" fill="#10B981"/>
</svg>
