<svg width="100" height="35" viewBox="0 0 100 35" fill="none" xmlns="http://www.w3.org/2000/svg">
<path d="M0 29.1667C0 13.0584 13.0584 0 29.1667 0H100V35H5.83333C2.61167 35 0 32.3883 0 29.1667Z" fill="url(#paint0_linear_28_18571)"/>
<path d="M40.3906 23V11.7266H42.1406L48.1875 20.2031L46.7969 19.4922H47.8047V11.7266H49.7422V23H48L41.9531 14.5156L43.3438 15.2266H42.3359V23H40.3906ZM55.9844 23.1719C55.1354 23.1719 54.4062 22.9922 53.7969 22.6328C53.1927 22.2734 52.7266 21.763 52.3984 21.1016C52.0703 20.4401 51.9062 19.6562 51.9062 18.75V18.7422C51.9062 17.8464 52.0677 17.0651 52.3906 16.3984C52.7188 15.7318 53.1823 15.2161 53.7812 14.8516C54.3802 14.4818 55.0833 14.2969 55.8906 14.2969C56.7031 14.2969 57.401 14.4766 57.9844 14.8359C58.5729 15.1901 59.026 15.6875 59.3438 16.3281C59.6615 16.9688 59.8203 17.7188 59.8203 18.5781V19.2188H52.8828V17.9141H58.8672L57.9453 19.1328V18.3594C57.9453 17.7917 57.8594 17.3203 57.6875 16.9453C57.5156 16.5703 57.276 16.2891 56.9688 16.1016C56.6667 15.9141 56.3151 15.8203 55.9141 15.8203C55.513 15.8203 55.1562 15.9193 54.8438 16.1172C54.5365 16.3099 54.2917 16.5964 54.1094 16.9766C53.9323 17.3516 53.8438 17.8125 53.8438 18.3594V19.1406C53.8438 19.6667 53.9323 20.1172 54.1094 20.4922C54.2865 20.862 54.5365 21.1484 54.8594 21.3516C55.1875 21.5495 55.5755 21.6484 56.0234 21.6484C56.3724 21.6484 56.6719 21.599 56.9219 21.5C57.1771 21.3958 57.3828 21.2734 57.5391 21.1328C57.6953 20.987 57.8047 20.849 57.8672 20.7188L57.8906 20.6641H59.7344L59.7188 20.7344C59.651 21.0104 59.526 21.2917 59.3438 21.5781C59.1667 21.8594 58.9245 22.1224 58.6172 22.3672C58.3151 22.6068 57.9453 22.8021 57.5078 22.9531C57.0703 23.099 56.5625 23.1719 55.9844 23.1719ZM60.7734 23L63.5391 18.7656L60.75 14.4609H62.9922L64.6953 17.4219H64.8281L66.5156 14.4609H68.6484L65.8828 18.6797L68.6797 23H66.4922L64.7422 20.0312H64.6094L62.8594 23H60.7734ZM73.75 23.0391C72.7708 23.0391 72.0651 22.8594 71.6328 22.5C71.2005 22.1406 70.9844 21.5521 70.9844 20.7344V15.9688H69.6562V14.4609H70.9844V12.3672H72.9609V14.4609H74.7578V15.9688H72.9609V20.2734C72.9609 20.6953 73.0495 21.0052 73.2266 21.2031C73.4089 21.3958 73.7005 21.4922 74.1016 21.4922C74.2422 21.4922 74.3568 21.4896 74.4453 21.4844C74.5391 21.474 74.6432 21.4635 74.7578 21.4531V22.9531C74.6224 22.9792 74.4661 23 74.2891 23.0156C74.1172 23.0312 73.9375 23.0391 73.75 23.0391Z" fill="#111827"/>
<defs>
<linearGradient id="paint0_linear_28_18571" x1="1.93159" y1="4.92187" x2="27.6043" y2="66.4998" gradientUnits="userSpaceOnUse">
<stop stop-color="#74FFD1"/>
<stop offset="1" stop-color="#10B981"/>
</linearGradient>
</defs>
</svg>
