<svg width="73" height="73" viewBox="0 0 73 73" fill="none" xmlns="http://www.w3.org/2000/svg">
<g filter="url(#filter0_d_91_1020)">
<rect x="16.3982" y="13.1187" width="40" height="40" rx="20" fill="white"/>
<path d="M36.3601 39.1049H43.1701C43.4353 39.1197 43.6998 39.0664 43.9386 38.95C44.1773 38.8336 44.3823 38.658 44.5339 38.4399C44.6855 38.2218 44.7787 37.9685 44.8047 37.7042C44.8306 37.4398 44.7884 37.1733 44.6821 36.9299C44.3221 35.8419 42.8871 34.5369 42.8871 33.2529C42.8871 30.4029 42.8871 29.6529 41.4831 27.9769C41.0287 27.4374 40.4654 27.0002 39.8301 26.6939L39.0471 26.3139C38.9157 26.2346 38.8024 26.1287 38.7144 26.0029C38.6263 25.8772 38.5656 25.7345 38.5361 25.5839C38.4578 25.0763 38.1894 24.6175 37.7853 24.3005C37.3812 23.9835 36.8717 23.832 36.3601 23.8769C35.8577 23.8467 35.3621 24.0049 34.9701 24.3205C34.5781 24.6362 34.3178 25.0866 34.2401 25.5839C34.2048 25.7397 34.1358 25.8858 34.0378 26.0119C33.9398 26.1381 33.8153 26.2412 33.6731 26.3139L32.8901 26.6939C32.2551 27.0003 31.6921 27.4375 31.2381 27.9769C29.8351 29.6529 29.8351 30.4029 29.8351 33.2529C29.8351 34.5369 28.4651 35.7109 28.1051 36.8639C27.8881 37.5609 27.7681 39.1049 29.5851 39.1049H36.3601Z" stroke="#111827" stroke-width="1.5" stroke-linecap="round" stroke-linejoin="round"/>
<path d="M39.6232 39.105C39.6317 39.5358 39.5532 39.964 39.3922 40.3637C39.2313 40.7635 38.9912 41.1266 38.6865 41.4314C38.3818 41.7361 38.0187 41.9761 37.6189 42.1371C37.2192 42.298 36.791 42.3766 36.3602 42.368C35.9292 42.3771 35.5008 42.299 35.1009 42.1382C34.7009 41.9774 34.3376 41.7374 34.0329 41.4326C33.7281 41.1277 33.4882 40.7643 33.3275 40.3643C33.1669 39.9643 33.0889 39.5359 33.0982 39.105" stroke="#111827" stroke-width="1.5" stroke-linecap="round" stroke-linejoin="round"/>
<circle cx="41.3982" cy="28.1187" r="3" fill="#FF5F57"/>
</g>
<defs>
<filter id="filter0_d_91_1020" x="2.47955e-05" y="0.000117302" width="72.7963" height="72.7963" filterUnits="userSpaceOnUse" color-interpolation-filters="sRGB">
<feFlood flood-opacity="0" result="BackgroundImageFix"/>
<feColorMatrix in="SourceAlpha" type="matrix" values="0 0 0 0 0 0 0 0 0 0 0 0 0 0 0 0 0 0 127 0" result="hardAlpha"/>
<feOffset dy="3.27963"/>
<feGaussianBlur stdDeviation="8.19908"/>
<feComposite in2="hardAlpha" operator="out"/>
<feColorMatrix type="matrix" values="0 0 0 0 0 0 0 0 0 0 0 0 0 0 0 0 0 0 0.25 0"/>
<feBlend mode="normal" in2="BackgroundImageFix" result="effect1_dropShadow_91_1020"/>
<feBlend mode="normal" in="SourceGraphic" in2="effect1_dropShadow_91_1020" result="shape"/>
</filter>
</defs>
</svg>
