<svg width="20" height="20" viewBox="0 0 20 20" fill="none" xmlns="http://www.w3.org/2000/svg">
<path d="M10.6364 3.63636C10.6364 3.46759 10.5693 3.30573 10.45 3.18639C10.3306 3.06705 10.1688 3 10 3C9.83123 3 9.66936 3.06705 9.55002 3.18639C9.43068 3.30573 9.36364 3.46759 9.36364 3.63636V9.36364H3.63636C3.46759 9.36364 3.30573 9.43068 3.18639 9.55002C3.06705 9.66936 3 9.83123 3 10C3 10.1688 3.06705 10.3306 3.18639 10.45C3.30573 10.5693 3.46759 10.6364 3.63636 10.6364H9.36364V16.3636C9.36364 16.5324 9.43068 16.6943 9.55002 16.8136C9.66936 16.933 9.83123 17 10 17C10.1688 17 10.3306 16.933 10.45 16.8136C10.5693 16.6943 10.6364 16.5324 10.6364 16.3636V10.6364H16.3636C16.5324 10.6364 16.6943 10.5693 16.8136 10.45C16.933 10.3306 17 10.1688 17 10C17 9.83123 16.933 9.66936 16.8136 9.55002C16.6943 9.43068 16.5324 9.36364 16.3636 9.36364H10.6364V3.63636Z" fill="#111827" stroke="black"/>
</svg>
