<svg width="60" height="60" viewBox="0 0 60 60" fill="none" xmlns="http://www.w3.org/2000/svg">
<g clip-path="url(#clip0_85_1885)">
<path d="M18.9656 1.94922C16.1344 1.94922 13.8281 4.15234 13.8281 6.86172V53.1367C13.8281 55.8461 16.1344 58.0492 18.9656 58.0492H41.0344C43.8656 58.0492 46.1719 55.8461 46.1719 53.1367V6.86172C46.1719 4.15234 43.8656 1.94922 41.0344 1.94922H18.9656ZM44.2969 53.1273C44.2969 54.8055 42.8344 56.1648 41.0344 56.1648H18.9656C17.1656 56.1648 15.7031 54.8055 15.7031 53.1273V51.2898H44.2969V53.1273ZM44.2969 49.4148H15.7031V9.26172H44.2969V49.4148ZM44.2969 6.86172V7.38672H15.7031V6.86172C15.7031 5.18359 17.1656 3.82422 18.9656 3.82422H41.0344C42.8344 3.82422 44.2969 5.18359 44.2969 6.86172ZM17.7656 20.2023V17.4367C17.7656 15.2898 19.5188 13.5367 21.6656 13.5367H24.4312C24.9469 13.5367 25.3687 13.9586 25.3687 14.4742C25.3687 14.9898 24.9469 15.4117 24.4312 15.4117H21.6656C20.55 15.4117 19.6406 16.3211 19.6406 17.4367V20.2023C19.6406 20.718 19.2188 21.1398 18.7031 21.1398C18.1875 21.1398 17.7656 20.718 17.7656 20.2023ZM34.6406 14.4742C34.6406 13.9586 35.0625 13.5367 35.5781 13.5367H38.3438C40.4906 13.5367 42.2438 15.2898 42.2438 17.4367V20.2023C42.2438 20.718 41.8219 21.1398 41.3063 21.1398C40.7906 21.1398 40.3688 20.718 40.3688 20.2023V17.4367C40.3688 16.3211 39.4594 15.4117 38.3438 15.4117H35.5781C35.0625 15.4117 34.6406 14.9898 34.6406 14.4742ZM42.2438 39.7867V42.5523C42.2438 44.6992 40.4906 46.4523 38.3438 46.4523H35.5781C35.0625 46.4523 34.6406 46.0305 34.6406 45.5148C34.6406 44.9992 35.0625 44.5773 35.5781 44.5773H38.3438C39.4594 44.5773 40.3688 43.668 40.3688 42.5523V39.7867C40.3688 39.2711 40.7906 38.8492 41.3063 38.8492C41.8219 38.8492 42.2438 39.2711 42.2438 39.7867ZM17.7656 42.5523V39.7867C17.7656 39.2711 18.1875 38.8492 18.7031 38.8492C19.2188 38.8492 19.6406 39.2711 19.6406 39.7867V42.5523C19.6406 43.668 20.55 44.5773 21.6656 44.5773H24.4312C24.9469 44.5773 25.3687 44.9992 25.3687 45.5148C25.3687 46.0305 24.9469 46.4523 24.4312 46.4523H21.6656C19.5188 46.4523 17.7656 44.6992 17.7656 42.5523Z" fill="#111827"/>
<path d="M38.7214 41.4707H21.162C20.9542 41.4707 20.787 41.3035 20.787 41.0957V17.8457C20.787 17.6379 20.9542 17.4707 21.162 17.4707H38.7229C38.9307 17.4707 39.0979 17.6379 39.0979 17.8457V41.0957C39.0964 41.3035 38.9292 41.4707 38.7214 41.4707ZM21.537 40.7207H38.3479V18.2207H21.537V40.7207Z" fill="#111827"/>
<path d="M24.3667 28.4414H23.8135C23.6057 28.4414 23.4385 28.2742 23.4385 28.0664C23.4385 27.8586 23.6057 27.6914 23.8135 27.6914H24.3667C24.5745 27.6914 24.7417 27.8586 24.7417 28.0664C24.7417 28.2742 24.5745 28.4414 24.3667 28.4414Z" fill="#111827"/>
<path d="M36.0698 28.4414H26.1807C25.9729 28.4414 25.8057 28.2742 25.8057 28.0664C25.8057 27.8586 25.9729 27.6914 26.1807 27.6914H36.0698C36.2776 27.6914 36.4448 27.8586 36.4448 28.0664C36.4448 28.2742 36.2776 28.4414 36.0698 28.4414Z" fill="#111827"/>
<path d="M24.3667 30.5254H23.8135C23.6057 30.5254 23.4385 30.3582 23.4385 30.1504C23.4385 29.9426 23.6057 29.7754 23.8135 29.7754H24.3667C24.5745 29.7754 24.7417 29.9426 24.7417 30.1504C24.7417 30.3582 24.5745 30.5254 24.3667 30.5254Z" fill="#111827"/>
<path d="M36.0698 30.5254H26.1807C25.9729 30.5254 25.8057 30.3582 25.8057 30.1504C25.8057 29.9426 25.9729 29.7754 26.1807 29.7754H36.0698C36.2776 29.7754 36.4448 29.9426 36.4448 30.1504C36.4448 30.3582 36.2776 30.5254 36.0698 30.5254Z" fill="#111827"/>
<path d="M24.3667 32.6074H23.8135C23.6057 32.6074 23.4385 32.4402 23.4385 32.2324C23.4385 32.0246 23.6057 31.8574 23.8135 31.8574H24.3667C24.5745 31.8574 24.7417 32.0246 24.7417 32.2324C24.7417 32.4402 24.5745 32.6074 24.3667 32.6074Z" fill="#111827"/>
<path d="M36.0698 32.6074H26.1807C25.9729 32.6074 25.8057 32.4402 25.8057 32.2324C25.8057 32.0246 25.9729 31.8574 26.1807 31.8574H36.0698C36.2776 31.8574 36.4448 32.0246 36.4448 32.2324C36.4448 32.4402 36.2776 32.6074 36.0698 32.6074Z" fill="#111827"/>
<path d="M29.8433 22.509H28.2933C28.0855 22.509 27.9183 22.3418 27.9183 22.134V19.873C27.9183 19.6652 28.0855 19.498 28.2933 19.498H29.8433C30.673 19.498 31.348 20.173 31.348 21.0027C31.348 21.8324 30.673 22.509 29.8433 22.509ZM28.6667 21.759H29.8417C30.2573 21.759 30.5964 21.4199 30.5964 21.0043C30.5964 20.5887 30.2573 20.2496 29.8417 20.2496H28.6667V21.759Z" fill="#111827"/>
<path d="M28.2918 24.9963C28.084 24.9963 27.9168 24.8291 27.9168 24.6213V22.1338C27.9168 21.926 28.084 21.7588 28.2918 21.7588C28.4996 21.7588 28.6668 21.926 28.6668 22.1338V24.6213C28.6668 24.8291 28.4996 24.9963 28.2918 24.9963Z" fill="#111827"/>
<path d="M31.684 25.8045C31.584 25.8045 31.4824 25.7639 31.409 25.6842L28.3465 22.3889C28.2058 22.2373 28.2136 21.9998 28.3652 21.8592C28.5168 21.7186 28.7543 21.7264 28.8949 21.878L31.959 25.1733C32.0996 25.3248 32.0918 25.5623 31.9402 25.703C31.8668 25.7717 31.7761 25.8045 31.684 25.8045Z" fill="#111827"/>
<path d="M29.8292 25.8045C29.7354 25.8045 29.6401 25.7686 29.5682 25.6983C29.4198 25.5545 29.4167 25.317 29.5604 25.1686L31.501 23.1702C31.6448 23.0217 31.8823 23.0186 32.0307 23.1623C32.1792 23.3061 32.1823 23.5436 32.0385 23.692L30.0995 25.6905C30.026 25.767 29.9276 25.8045 29.8292 25.8045Z" fill="#111827"/>
<path d="M28.3903 39.4434C28.231 39.4434 28.07 39.4137 27.9138 39.3528C27.5888 39.2246 27.3325 38.9778 27.1935 38.6574C27.0544 38.3371 27.0481 37.9809 27.1763 37.6559L28.2544 34.9168C28.5185 34.2449 29.2794 33.9137 29.9497 34.1778C30.6216 34.4418 30.9528 35.2028 30.6888 35.8731L29.6106 38.6121C29.4075 39.1278 28.9122 39.4434 28.3903 39.4434ZM29.4716 34.8371C29.2481 34.8371 29.0388 34.9715 28.9513 35.1903L27.8731 37.9293C27.8185 38.0684 27.8216 38.2199 27.881 38.3559C27.9403 38.4918 28.0497 38.5981 28.1888 38.6528C28.4747 38.7653 28.7997 38.6246 28.9122 38.3371L29.9903 35.5981C30.1028 35.3121 29.9622 34.9871 29.6747 34.8746C29.6075 34.8496 29.5388 34.8371 29.4716 34.8371Z" fill="#111827"/>
<path d="M29.7994 37.481C29.7541 37.481 29.7073 37.4732 29.6619 37.4544L27.926 36.7732C27.7338 36.6966 27.6385 36.4794 27.7151 36.2872C27.7916 36.095 28.0088 35.9997 28.201 36.0763L29.9369 36.7591C30.1291 36.8357 30.2244 37.0528 30.1479 37.245C30.0901 37.3919 29.9494 37.481 29.7994 37.481Z" fill="#111827"/>
<path d="M31.2027 39.4417C31.0136 39.4417 30.823 39.4105 30.6386 39.3496C30.1886 39.1996 29.823 38.8824 29.612 38.4574C29.3995 38.0324 29.3667 37.5511 29.5167 37.1011C29.6667 36.6511 29.9839 36.2855 30.4089 36.0746C30.8339 35.8621 31.3152 35.8292 31.7652 35.9792C32.2152 36.1292 32.5808 36.4464 32.7917 36.8714C33.0042 37.2964 33.037 37.7777 32.887 38.2277C32.737 38.6777 32.4198 39.0433 31.9948 39.2542C31.7448 39.3792 31.4745 39.4417 31.2027 39.4417ZM30.7433 36.7449C30.498 36.8667 30.3152 37.0777 30.2277 37.3386C30.1402 37.5996 30.1605 37.8777 30.2823 38.123C30.4042 38.3683 30.6152 38.5511 30.8761 38.6386C31.137 38.7261 31.4152 38.7058 31.6605 38.5839C32.1667 38.3308 32.373 37.7136 32.1198 37.2058C31.8683 36.6996 31.2495 36.4917 30.7433 36.7449Z" fill="#111827"/>
<path d="M31.8277 39.2929C31.6902 39.2929 31.5574 39.2163 31.4918 39.0851L30.2387 36.5757C30.1465 36.3898 30.2215 36.1648 30.4074 36.0726C30.5934 35.9804 30.8184 36.0554 30.9105 36.2413L32.1637 38.7507C32.2559 38.9367 32.1809 39.1617 31.9949 39.2538C31.9418 39.2804 31.884 39.2929 31.8277 39.2929Z" fill="#111827"/>
</g>
<defs>
<clipPath id="clip0_85_1885">
<rect width="60" height="60" fill="white"/>
</clipPath>
</defs>
</svg>
