<svg width="20" height="20" viewBox="0 0 20 20" fill="none" xmlns="http://www.w3.org/2000/svg">
<path fill-rule="evenodd" clip-rule="evenodd" d="M10.3828 18.9996H3.2176C2.8046 18.9996 2.46802 18.6635 2.46802 18.25L2.46803 11.4766C2.46803 11.0632 2.80452 10.7271 3.21755 10.7271H3.81326C4.0101 10.7271 4.16975 10.567 4.16975 10.3705L4.16981 9.13791C4.16981 9.02942 4.25778 8.94141 4.36625 8.94141C4.47479 8.94141 4.56275 9.02943 4.56275 9.13791V10.3705C4.56275 10.784 4.22667 11.1201 3.81319 11.1201L3.2176 11.1201C3.02115 11.1201 2.86101 11.2801 2.86101 11.4766L2.86105 18.25C2.86105 18.4465 3.02108 18.6066 3.21755 18.6066H10.3828C10.5792 18.6066 10.7393 18.4465 10.7393 18.25L10.7393 11.4766C10.7393 11.2801 10.5792 11.1201 10.3827 11.1201L9.78721 11.1201C9.37373 11.1201 9.03756 10.784 9.03756 10.3705L9.03763 9.13791C9.03763 9.02942 9.12557 8.94141 9.23406 8.94141C9.3426 8.94141 9.43055 9.02943 9.43055 9.13791L9.43056 10.3705C9.43056 10.567 9.59062 10.7271 9.78712 10.7271H10.3828C10.7963 10.7271 11.1323 11.0632 11.1323 11.4766L11.1324 18.25C11.1324 18.6635 10.7962 18.9996 10.3828 18.9996Z" fill="#10B981" stroke="#10B981" stroke-width="0.2"/>
<path fill-rule="evenodd" clip-rule="evenodd" d="M4.04364 7.45549C3.96461 7.45549 3.90032 7.51976 3.90032 7.59836V8.79863C3.90032 8.87764 3.96457 8.94191 4.04359 8.94191H9.55658C9.6356 8.94191 9.69985 8.87765 9.69985 8.79863L9.69991 7.59836C9.69991 7.51976 9.63557 7.4555 9.55657 7.4555L4.04364 7.45549ZM9.55658 9.3349H4.04364C3.74806 9.3349 3.50732 9.09461 3.50732 8.79863L3.50739 7.59836C3.50739 7.3028 3.74803 7.0625 4.04359 7.0625H9.55658C9.85262 7.0625 10.0928 7.3028 10.0928 7.59836L10.0929 8.79863C10.0929 9.09461 9.85254 9.3349 9.55658 9.3349Z" fill="#10B981" stroke="#10B981" stroke-width="0.2"/>
<path fill-rule="evenodd" clip-rule="evenodd" d="M10.9359 13.0229H2.6646C2.55608 13.0229 2.46802 12.9349 2.46802 12.8264C2.46803 12.7179 2.55603 12.6299 2.66452 12.6299H10.9359C11.0443 12.6299 11.1323 12.7179 11.1323 12.8264C11.1324 12.9349 11.0443 13.0229 10.9359 13.0229Z" fill="#10B981" stroke="#10B981" stroke-width="0.2"/>
<path fill-rule="evenodd" clip-rule="evenodd" d="M10.9359 17.0961H2.6646C2.55608 17.0961 2.46802 17.0081 2.46802 16.8996C2.46803 16.7911 2.55603 16.7031 2.66452 16.7031H10.9359C11.0443 16.7031 11.1323 16.7911 11.1323 16.8996C11.1324 17.0081 11.0443 17.0961 10.9359 17.0961Z" fill="#10B981" stroke="#10B981" stroke-width="0.2"/>
<path fill-rule="evenodd" clip-rule="evenodd" d="M6.80031 16.1318C6.69144 16.1318 6.60376 16.0438 6.60376 15.9353L6.60384 13.7902C6.60384 13.6814 6.69136 13.5938 6.80025 13.5938C6.90882 13.5938 6.99676 13.6814 6.99676 13.7902L6.99678 15.9353C6.99678 16.0438 6.90873 16.1318 6.80031 16.1318Z" fill="#10B981" stroke="#10B981" stroke-width="0.2"/>
<path fill-rule="evenodd" clip-rule="evenodd" d="M7.87274 15.06H5.72764C5.61878 15.06 5.53113 14.972 5.53113 14.8635C5.53117 14.755 5.61875 14.667 5.72763 14.667H7.87274C7.98125 14.667 8.06923 14.755 8.06923 14.8635C8.06931 14.972 7.98121 15.06 7.87274 15.06Z" fill="#10B981" stroke="#10B981" stroke-width="0.2"/>
<path fill-rule="evenodd" clip-rule="evenodd" d="M16.8482 19H10.3826C10.2741 19 10.1861 18.912 10.1861 18.8035C10.1862 18.695 10.2741 18.607 10.3826 18.607H16.8482C17.0082 18.607 17.1388 18.4764 17.1388 18.3164L17.1388 1.68364C17.1388 1.52317 17.0082 1.39299 16.8482 1.39299H8.3207C8.16016 1.39299 8.02996 1.52318 8.02996 1.68364L8.03001 7.25885C8.03001 7.36732 7.94195 7.45535 7.83346 7.45535C7.72505 7.45533 7.63696 7.36732 7.63696 7.25885L7.63697 1.68364C7.63697 1.30661 7.94358 1 8.32062 1H16.8482C17.2252 1 17.5318 1.30661 17.5318 1.68364L17.5319 18.3164C17.5319 18.6934 17.2252 19 16.8482 19Z" fill="#10B981" stroke="#10B981" stroke-width="0.2"/>
<path fill-rule="evenodd" clip-rule="evenodd" d="M12.5843 18.9999C12.4759 18.9999 12.3878 18.9119 12.3878 18.8034L12.3879 1.1965C12.3879 1.0876 12.4758 1 12.5843 1C12.6933 1 12.7808 1.0876 12.7808 1.1965L12.7809 18.8034C12.7809 18.9119 12.6932 18.9999 12.5843 18.9999Z" fill="#10B981" stroke="#10B981" stroke-width="0.2"/>
<path fill-rule="evenodd" clip-rule="evenodd" d="M14.2165 2.96427C13.9778 2.96427 13.7834 3.15872 13.7834 3.39739C13.7834 3.63604 13.9778 3.8301 14.2165 3.8301H15.7034C15.942 3.8301 16.1364 3.63605 16.1364 3.39739C16.1365 3.15872 15.942 2.96427 15.7033 2.96427H14.2165ZM15.7034 4.22307H14.2165C13.7609 4.22307 13.3904 3.8526 13.3904 3.39739C13.3904 2.94175 13.7609 2.57129 14.2165 2.57129H15.7034C16.159 2.57129 16.5294 2.94176 16.5294 3.39739C16.5295 3.85259 16.159 4.22307 15.7034 4.22307Z" fill="#10B981" stroke="#10B981" stroke-width="0.2"/>
<path fill-rule="evenodd" clip-rule="evenodd" d="M17.3354 5.79437H7.83355C7.72505 5.79437 7.63696 5.70635 7.63696 5.59788C7.63697 5.48938 7.72499 5.40137 7.83346 5.40137H17.3354C17.4438 5.40137 17.5318 5.48939 17.5318 5.59788C17.5319 5.70634 17.4438 5.79437 17.3354 5.79437Z" fill="#10B981" stroke="#10B981" stroke-width="0.2"/>
<path fill-rule="evenodd" clip-rule="evenodd" d="M17.3355 10.1957H9.23401C9.1255 10.1957 9.03748 10.1077 9.03748 9.99925C9.03755 9.89076 9.12548 9.80273 9.23398 9.80273H17.3355C17.4439 9.80273 17.5319 9.89076 17.5319 9.99925C17.5319 10.1077 17.4439 10.1957 17.3355 10.1957Z" fill="#10B981" stroke="#10B981" stroke-width="0.2"/>
<path fill-rule="evenodd" clip-rule="evenodd" d="M17.3355 14.5971H10.9358C10.8273 14.5971 10.7393 14.5091 10.7393 14.4006C10.7393 14.2921 10.8273 14.2041 10.9358 14.2041H17.3355C17.4439 14.2041 17.5319 14.2921 17.5319 14.4006C17.532 14.5091 17.4439 14.5971 17.3355 14.5971Z" fill="#10B981" stroke="#10B981" stroke-width="0.2"/>
<path fill-rule="evenodd" clip-rule="evenodd" d="M9.46525 2.96427C9.2266 2.96427 9.03252 3.15872 9.03252 3.39739C9.03253 3.63604 9.22657 3.8301 9.46522 3.8301H10.9525C11.1912 3.8301 11.3856 3.63605 11.3856 3.39739C11.3856 3.15872 11.1911 2.96427 10.9525 2.96427H9.46525ZM10.9525 4.22307H9.46525C9.01006 4.22307 8.63953 3.8526 8.63953 3.39739C8.6396 2.94175 9.01001 2.57129 9.46522 2.57129H10.9525C11.4077 2.57129 11.7782 2.94176 11.7782 3.39739C11.7782 3.85259 11.4077 4.22307 10.9525 4.22307Z" fill="#10B981" stroke="#10B981" stroke-width="0.2"/>
<path fill-rule="evenodd" clip-rule="evenodd" d="M14.2165 7.36566C13.9778 7.36566 13.7834 7.5597 13.7834 7.79835C13.7834 8.03742 13.9778 8.23146 14.2165 8.23146H15.7034C15.942 8.23146 16.1364 8.03743 16.1364 7.79877C16.1365 7.55969 15.942 7.36566 15.7033 7.36566H14.2165ZM15.7034 8.62446H14.2165C13.7609 8.62446 13.3904 8.25398 13.3904 7.79877C13.3904 7.34313 13.7609 6.97266 14.2165 6.97266H15.7034C16.159 6.97266 16.5294 7.34314 16.5294 7.79835C16.5295 8.25398 16.159 8.62446 15.7034 8.62446Z" fill="#10B981" stroke="#10B981" stroke-width="0.2"/>
<path fill-rule="evenodd" clip-rule="evenodd" d="M14.2165 11.767C13.9778 11.767 13.7834 11.9615 13.7834 12.2001C13.7834 12.4388 13.9778 12.6332 14.2165 12.6332H15.7034C15.942 12.6332 16.1364 12.4388 16.1364 12.2001C16.1365 11.9615 15.942 11.767 15.7033 11.767H14.2165ZM15.7034 13.0262H14.2165C13.7609 13.0262 13.3904 12.6553 13.3904 12.2001C13.3904 11.7445 13.7609 11.374 14.2165 11.374H15.7034C16.159 11.374 16.5294 11.7445 16.5294 12.2001C16.5295 12.6553 16.159 13.0262 15.7034 13.0262Z" fill="#10B981" stroke="#10B981" stroke-width="0.2"/>
<path fill-rule="evenodd" clip-rule="evenodd" d="M14.2165 16.1694C13.9778 16.1694 13.7834 16.3634 13.7834 16.6021C13.7834 16.8411 13.9778 17.0352 14.2165 17.0352H15.7034C15.942 17.0352 16.1364 16.8411 16.1364 16.6025C16.1365 16.3634 15.942 16.1694 15.7033 16.1694H14.2165ZM15.7034 17.4282H14.2165C13.7609 17.4282 13.3904 17.0577 13.3904 16.6025C13.3904 16.1468 13.7609 15.7764 14.2165 15.7764H15.7034C16.159 15.7764 16.5294 16.1468 16.5294 16.6021C16.5295 17.0577 16.159 17.4282 15.7034 17.4282Z" fill="#10B981" stroke="#10B981" stroke-width="0.2"/>
</svg>
