<svg width="80" height="80" viewBox="0 0 80 80" fill="none" xmlns="http://www.w3.org/2000/svg">
<g clip-path="url(#clip0_26_14469)">
<path d="M43.64 0.666861C34.1773 0.678154 25.1054 4.4424 18.4144 11.1338C11.7235 17.8253 7.95993 26.8974 7.94934 36.3602C7.94934 36.8906 8.16005 37.3993 8.53513 37.7744C8.9102 38.1495 9.41891 38.3602 9.94934 38.3602C10.4798 38.3602 10.9885 38.1495 11.3636 37.7744C11.7386 37.3993 11.9493 36.8906 11.9493 36.3602C11.9488 30.0916 13.8072 23.9637 17.2895 18.7513C20.7718 13.539 25.7216 9.47634 31.5129 7.07722C37.3042 4.67809 43.6769 4.05023 49.8251 5.27304C55.9732 6.49585 61.6207 9.5144 66.0532 13.947C70.4858 18.3795 73.5043 24.027 74.7272 30.1751C75.95 36.3233 75.3221 42.696 72.923 48.4873C70.5239 54.2786 66.4612 59.2284 61.2489 62.7107C56.0365 66.193 49.9086 68.0514 43.64 68.0509C43.1096 68.0509 42.6009 68.2616 42.2258 68.6367C41.8507 69.0117 41.64 69.5204 41.64 70.0509C41.64 70.5813 41.8507 71.09 42.2258 71.4651C42.6009 71.8401 43.1096 72.0509 43.64 72.0509C48.3531 72.0916 53.0276 71.1985 57.3937 69.4231C61.7598 67.6476 65.731 65.0251 69.0782 61.7067C72.4254 58.3883 75.0822 54.4399 76.8953 50.0893C78.7084 45.7387 79.6419 41.0721 79.6419 36.3589C79.6419 31.6456 78.7084 26.979 76.8953 22.6284C75.0822 18.2778 72.4254 14.3294 69.0782 11.011C65.731 7.69267 61.7598 5.07009 57.3937 3.29467C53.0276 1.51924 48.3531 0.626122 43.64 0.666861Z" fill="white"/>
<path d="M42.4586 16.4775C41.9282 16.4775 41.4195 16.6883 41.0444 17.0633C40.6694 17.4384 40.4586 17.9471 40.4586 18.4775V35.7629C40.4607 36.4787 40.6263 37.1845 40.9429 37.8265C41.2595 38.4684 41.7187 39.0295 42.2853 39.4669L55.3893 49.5095C55.7364 49.7787 56.1634 49.9242 56.6026 49.9229C57.0206 49.9231 57.4282 49.7924 57.768 49.5491C58.1079 49.3057 58.3629 48.9621 58.4974 48.5663C58.6319 48.1705 58.639 47.7426 58.5177 47.3426C58.3964 46.9426 58.1529 46.5907 57.8213 46.3362L44.72 36.2935C44.6372 36.2314 44.57 36.1509 44.5237 36.0583C44.4774 35.9658 44.4533 35.8637 44.4533 35.7602V18.4775C44.4533 17.948 44.2433 17.4401 43.8694 17.0652C43.4955 16.6903 42.9882 16.479 42.4586 16.4775Z" fill="white"/>
<path d="M3.78931 61.1176L11.336 68.6642L18.8773 76.2056C20.7163 78.0649 23.1754 79.1823 25.7856 79.3445C28.3957 79.5067 30.9743 78.7025 33.0294 77.0852C35.0845 75.4678 36.4724 73.1506 36.9283 70.5755C37.3842 68.0003 36.8762 65.3475 35.5013 63.1229C37.9696 60.6475 39.3534 57.2931 39.3484 53.7974C39.3434 50.3017 37.95 46.9512 35.4746 44.4829C32.9993 42.0146 29.6448 40.6308 26.1491 40.6358C22.6534 40.6408 19.3029 42.0342 16.8346 44.5096C14.7858 43.3145 12.4045 42.8163 10.0484 43.0899C7.69225 43.3635 5.48848 44.3941 3.76797 46.0269C2.77742 47.0174 1.99167 48.1933 1.45559 49.4875C0.919505 50.7817 0.643585 52.1687 0.643585 53.5696C0.643585 54.9704 0.919505 56.3575 1.45559 57.6516C1.99167 58.9458 2.77742 60.1217 3.76797 61.1122L3.78931 61.1176ZM31.1386 73.3842C29.8885 74.634 28.1931 75.3361 26.4253 75.3361C24.6575 75.3361 22.9622 74.634 21.712 73.3842L15.5786 67.2509L17.4266 65.4029L25.0026 57.8242L31.136 63.9576C32.3853 65.2073 33.0874 66.9019 33.0879 68.669C33.0884 70.4361 32.3873 72.1338 31.1386 73.3842ZM26.264 44.5336C28.0639 44.5241 29.8266 45.046 31.3313 46.0337C32.8361 47.0215 34.0159 48.4313 34.7231 50.0865C35.4303 51.7417 35.6334 53.5688 35.3069 55.3389C34.9805 57.109 34.1391 58.7435 32.888 60.0376L26.4213 53.5816L19.952 47.1122C21.6474 45.475 23.9071 44.5519 26.264 44.5336ZM6.61597 48.8536C7.88631 47.6414 9.57474 46.9651 11.3306 46.9651C13.0865 46.9651 14.775 47.6414 16.0453 48.8536L22.1786 54.9869L12.7493 64.4216L6.61597 58.2882C5.99673 57.6691 5.50551 56.9341 5.17037 56.1252C4.83523 55.3162 4.66273 54.4492 4.66273 53.5736C4.66273 52.6979 4.83523 51.8309 5.17037 51.0219C5.50551 50.213 5.99673 49.478 6.61597 48.8589V48.8536Z" fill="white"/>
</g>
<defs>
<clipPath id="clip0_26_14469">
<rect width="80" height="80" fill="white"/>
</clipPath>
</defs>
</svg>
